<?xml version="1.0" encoding="utf-8"?>
<!-- Generator: Adobe Illustrator 23.0.3, SVG Export Plug-In . SVG Version: 6.00 Build 0)  -->
<svg version="1.1" id="Layer_1" xmlns="http://www.w3.org/2000/svg" xmlns:xlink="http://www.w3.org/1999/xlink" x="0px" y="0px"
	 viewBox="0 0 1600 1600" style="enable-background:new 0 0 1600 1600;" xml:space="preserve">
<style type="text/css">
	.st0{fill:#231F20;}
	.st1{fill:#FFFFFF;}
	.st2{fill:none;}
</style>
<g id="Layer_3">
</g>
<g>
	<path class="st0" d="M476.7,1308.9c-8.4-5.3-16.1-7-23.1-5.1c-5.9,1.8-12.5,8.3-19.6,19.5l-47.4,74.7l13.6,8.6l47.4-74.7
		c4.2-6.7,7.7-10.7,10.4-12c2.7-1.3,6-0.7,10.1,1.9c4.1,2.6,6,5.5,5.8,8.8c-0.2,3.3-2.7,8.6-7.4,16.1l-46.2,72.7l13.6,8.6l46.2-72.7
		c7.1-11.2,10.6-19.7,10.5-25.3C490.7,1321.8,486,1314.8,476.7,1308.9z"/>
	<path class="st0" d="M426.7,1275.8l-33,41.7c-1,1.2-1.8,2.2-2.6,3.2c-0.7,1-1.4,1.8-1.9,2.5l-8.8,12.3l-7.2,10.1
		c-0.4,0.6-0.9,1.3-1.4,2.1c-0.5,0.8-1.2,1.8-1.9,3c0.6-1.3,1.2-2.4,1.7-3.3c0.5-1,0.9-1.8,1.3-2.4c2.8-5.4,5.3-10.6,7.5-15.7
		c2.2-5.1,4.3-10.2,6.3-15.2l20.5-54.1l-11.9-9.7l-77.3,94.3l12.7,10.4l28.8-35.2c4.3-5.2,8.6-11,12.9-17.3
		c4.3-6.3,9-13.5,13.9-21.6c-7.1,14.3-13.1,28.3-18.1,42l-18.1,48l11.9,9.7l77.3-94.3L426.7,1275.8z"/>
	<path class="st0" d="M374.7,1230.2c-10.7-11.1-20-16.9-28-17.5c-6.4-0.5-13.3,1.3-20.6,5.3c-7.6,4.3-16.3,11.1-26,20.4
		c-10.6,10.1-18,18.6-22.3,25.4c-4.5,7-7,13.9-7.4,20.7c-0.3,4.5,0.4,8.7,2.2,12.4c1.9,4,5,8.2,9.3,12.6l14,14.6l88-84.4
		L374.7,1230.2z M294.4,1302.8l-1.4-1.5c-6.1-6.4-7.8-13.2-5-20.5c2.8-7.3,11-17.4,24.5-30.4c12.6-12.1,22.3-19,29.1-20.7
		c6.7-1.8,13.5,0.9,20.5,8.1L294.4,1302.8z"/>
	<polygon class="st0" points="307.8,1152.4 296.8,1160.9 313.6,1182.4 280.6,1207.9 265.8,1188.8 254.8,1197.3 269.6,1216.4 
		239,1240 222.3,1218.5 211.3,1227.1 238.1,1261.5 334.6,1186.9 	"/>
	<path class="st0" d="M292,1128.5l-50.7,31.6l38.8-50.6l-8.9-14.1l-38.4,50.4c-4-3.9-9-5.7-15-5.4c-6,0.3-12.8,2.8-20.2,7.4
		c-9.7,6-15.4,12.8-17.1,20.5c-1.3,6,0.4,12.7,5.2,20.3l11.5,18.3l103.5-64.6L292,1128.5z M199.9,1185.9l-1.5-2.3
		c-1.4-2.2-2.2-4.3-2.5-6.3c-0.3-2-0.1-3.9,0.7-5.8c0.8-1.9,2.2-3.8,4.2-5.7c2-1.9,4.6-3.8,7.8-5.9c5.9-3.7,10.9-5.2,14.8-4.6
		c3.9,0.7,7.5,3.7,10.9,9.1L199.9,1185.9z"/>
	<path class="st0" d="M253.9,1089.5c6.4-8.6,7.1-18.1,2-28.5c-4.9-10.1-12.1-15.2-21.6-15.2c-9.3-0.1-24.7,4.9-46.1,15.2l-4.3,2
		l13,26.9l12.5-6l-6.2-12.9l2.2-1.1l3-1.4c9.9-4.7,17.5-7.2,22.9-7.4c5.1-0.1,8.8,2.2,11,6.9c2.5,5.1,1.2,10-3.8,14.7
		c-5,4.7-15.8,11-32.5,19c-16.5,7.9-28.4,12.5-35.6,13.7c-7,1.1-11.6-0.8-14-5.7c-1.7-3.6-1.9-6.8-0.6-9.7c0.7-1.4,1.8-3,3.4-4.7
		c1.6-1.7,3.7-3.6,6.3-5.6l-12.4-11c-6.9,6.1-11.2,12.1-12.7,17.8c-1.5,5.7-0.6,12.1,2.9,19.3c4.5,9.4,11.5,14.7,20.9,15.8
		c10,1.2,26.5-3.8,49.6-14.9C234.1,1107.1,247.5,1098,253.9,1089.5z"/>
	<path class="st0" d="M231.8,1007.5l-56.5,19.6l49.2-40.6l-5.5-15.7l-48.8,40.6c-3-4.7-7.4-7.6-13.4-8.6c-6-1-13.1-0.1-21.4,2.8
		c-10.8,3.7-17.9,9.1-21.3,16.1c-2.6,5.5-2.4,12.5,0.5,20.9l7.1,20.4l115.4-39.9L231.8,1007.5z M129.1,1043l-0.9-2.6
		c-0.8-2.4-1.2-4.7-1.1-6.7c0.1-2,0.8-3.9,2-5.5c1.2-1.7,3-3.2,5.3-4.6c2.4-1.4,5.3-2.7,8.9-4c6.6-2.3,11.8-2.7,15.4-1.2
		c3.7,1.5,6.5,5.3,8.6,11.3L129.1,1043z"/>
	<path class="st0" d="M215.1,954.8l-24.3,0.8l-5.5-23.5l22.2-9.8l-3.7-15.8L90.8,959.3l2.9,12.4l125-1.6L215.1,954.8z M162,956.8
		c-8.6,0.4-16.7,0.8-24.2,1.4c-7.6,0.6-15,1.3-22.3,2.2c14.3-4.9,27.6-10,40-15.3l18.1-7.9l4.4,19L162,956.8z"/>
	<path class="st0" d="M201.5,886.8c-1.7-15.2-5.6-25.5-11.6-30.8c-4.8-4.3-11.3-7.1-19.7-8.2c-8.7-1.2-19.7-1-33.1,0.5
		c-14.6,1.7-25.6,3.9-33.2,6.7c-7.9,2.9-14,6.8-18.5,12c-3,3.4-4.9,7.1-5.8,11.1c-0.9,4.3-1,9.6-0.3,15.7l2.3,20.1L203,900
		L201.5,886.8z M93.6,896l-0.2-2c-1-8.8,1.8-15.2,8.5-19.3c6.6-4.1,19.3-7.2,38-9.3c17.4-2,29.3-1.6,35.7,1.2
		c6.4,2.7,10.2,8.9,11.3,18.9L93.6,896z"/>
	<path class="st0" d="M187,823.8c6.9-4.4,10.4-12.1,10.4-23c0.1-9.9-2.6-17.3-7.9-22.2c-4.7-4.1-13.6-6.2-26.9-6.2L74,771.8
		l-0.1,16.1l88.7,0.6c7.9,0,13.2,0.9,15.7,2.5c2.5,1.5,3.8,4.7,3.7,9.5c0,4.8-1.5,8-4.4,9.6c-2.9,1.6-8.8,2.3-17.6,2.3l-86.3-0.5
		l-0.1,16.1l86.3,0.5C173.3,828.4,182.3,826.9,187,823.8z"/>
	<path class="st0" d="M198.1,750.6l-23.1-7.4l2.9-24l24.2-1.7l1.9-16.1L79.6,712.9l-1.5,12.7l118.2,40.7L198.1,750.6z M162.7,739.4
		l-15.2-4.8c-8.2-2.6-16-4.9-23.3-6.9c-7.3-2-14.6-3.8-21.8-5.4c15.1,0.3,29.4,0,42.8-0.9L165,720L162.7,739.4z"/>
	<polygon class="st0" points="102,664.8 207.3,687.8 210.8,672.1 105.5,649.1 109.4,631.1 95.4,628 83.9,680.2 98,683.3 	"/>
	<polygon class="st0" points="229.1,606.2 215.8,602.1 207.8,628.2 167.9,616.1 175,593 161.7,588.9 154.6,612 117.6,600.8 
		125.5,574.8 112.2,570.8 99.5,612.5 216.4,647.9 	"/>
	<path class="st0" d="M249.4,555.2l-72.9-42.2c6.5,2.3,12.8,4.5,18.8,6.4c6,1.9,12.1,3.6,18.1,5.2l45.4,12.2l5-9.8l-42.9-33.2
		l-3.4-2.6l-9-6.9c-1.2-0.9-2.7-2-4.5-3.3c-1.8-1.3-3.9-2.8-6.3-4.4l-2-1.5c0.5,0.2,1,0.4,1.3,0.5c0.3,0.1,0.5,0.2,0.6,0.3l13.6,6.4
		l14.9,6.7c0.9,0.5,2,1,3.4,1.6c1.4,0.6,3.1,1.4,5,2.2l38.2,16.2l7.1-14l-114-45.1l-6.4,12.7l39.4,30.6l7,5.6l10.9,7.8l11.5,8.3
		c0.2,0.1,0.5,0.4,0.9,0.6c0.4,0.3,1,0.7,1.8,1.2c-6.5-2.3-12.8-4.4-18.9-6.2c-6.1-1.9-12.2-3.6-18.3-5.2l-49.3-12.9L138,505
		l104.4,64L249.4,555.2z"/>
	<polygon class="st0" points="295.7,472.9 193,407 184.1,420.8 286.8,486.7 	"/>
	<path class="st0" d="M228.8,406.1c5.6,4.3,11.1,6.8,16.3,7.5c2.7,0.4,6.1,0.4,10.3,0.2c4.2-0.3,9.2-0.8,15-1.7
		c3.8-0.5,7.1-0.8,9.9-0.9c2.8-0.1,5.2-0.1,7.2,0.2c4,0.6,7.8,2.2,11.3,4.9c4.1,3.1,6.5,6.5,7.4,10.3c0.8,3.8-0.1,7.5-2.8,11
		c-2.9,3.8-7.8,6.8-14.8,8.9l13,9.8c6.1-1.6,11.2-5.2,15.4-10.8c5-6.6,6.8-13.8,5.2-21.7c-1.7-7.9-6.3-14.7-13.8-20.4
		c-5.6-4.2-11-6.8-16.3-7.7c-5.4-1.1-12.9-1-22.3,0.3c-5.1,0.7-9.4,1.2-12.8,1.5c-3.4,0.3-6.1,0.3-8,0.1c-3.6-0.3-7.1-1.7-10.5-4.3
		c-3.9-2.9-6.1-6.3-6.8-10.3c-0.8-4,0.1-7.7,2.7-11.2c2.4-3.2,6.6-5.7,12.5-7.5l-12.8-9.7c-5.4,2.6-9.9,6.2-13.5,10.8
		c-5.1,6.7-6.9,13.8-5.4,21.1C216.7,393.9,221.2,400.4,228.8,406.1z"/>
	<path class="st0" d="M269.7,353.7c5.2,4.8,10.4,7.8,15.5,9.1c2.6,0.6,6.1,1,10.2,1.1c4.2,0.1,9.2,0,15.1-0.2c3.8-0.2,7.1-0.2,9.9,0
		c2.8,0.2,5.2,0.4,7.1,0.8c3.9,1,7.5,2.9,10.8,5.9c3.8,3.5,5.9,7.1,6.4,11c0.5,3.9-0.8,7.4-3.8,10.7c-3.3,3.5-8.4,6-15.5,7.4l12,11
		c6.2-1,11.7-4.1,16.4-9.3c5.6-6.1,8.1-13.1,7.3-21.1c-0.9-8-4.8-15.2-11.8-21.6c-5.1-4.7-10.3-7.8-15.4-9.2
		c-5.3-1.6-12.7-2.2-22.2-1.9c-5.1,0.2-9.4,0.3-12.9,0.2c-3.5-0.1-6.1-0.3-8-0.6c-3.6-0.6-6.9-2.4-10.1-5.3
		c-3.6-3.3-5.5-6.9-5.8-10.9c-0.4-4.1,0.9-7.7,3.8-10.9c2.7-2.9,7.1-5,13.1-6.3l-11.8-10.8c-5.7,2-10.5,5.2-14.4,9.5
		c-5.7,6.2-8.2,13-7.4,20.5C258.8,340.3,262.7,347.2,269.7,353.7z"/>
	<polygon class="st0" points="392.6,360.4 309.3,271.4 297.3,282.6 380.6,371.6 	"/>
	<polygon class="st0" points="438.8,322 430,311.2 409.1,328.1 341,244.2 328.2,254.5 405.1,349.2 	"/>
	<polygon class="st0" points="481.5,293.2 473.8,281.7 451.1,296.9 427.9,262.4 448,248.9 440.2,237.4 420.1,250.9 398.5,218.9 
		421.2,203.7 413.4,192.2 377.1,216.5 445.2,317.6 	"/>
	<path class="st0" d="M456.6,221.1c2.3,1.5,5.4,2.9,9.3,4.4c3.9,1.5,8.7,3,14.3,4.6c3.6,1.1,6.8,2.1,9.4,3.2
		c2.6,1.1,4.8,2.1,6.5,3.1c3.4,2.2,6.2,5.2,8.3,9.1c2.4,4.5,3.3,8.6,2.5,12.4c-0.8,3.8-3.2,6.8-7.1,8.9c-4.2,2.3-9.9,2.9-17.1,2
		l7.8,14.3c6.2,1,12.4-0.1,18.5-3.5c7.3-4,11.9-9.8,13.7-17.6c1.8-7.9,0.4-16-4.1-24.2c-3.3-6.1-7.2-10.7-11.6-13.7
		c-4.5-3.2-11.3-6.2-20.4-8.9c-4.9-1.5-9-2.8-12.3-3.9c-3.2-1.2-5.7-2.2-7.4-3.2c-3.2-1.8-5.8-4.5-7.8-8.2c-2.3-4.3-3-8.3-1.9-12.1
		c1-4,3.3-7,7.1-9.1c3.5-1.9,8.3-2.5,14.5-1.7l-7.7-14.1c-6,0.1-11.6,1.5-16.7,4.3c-7.4,4-12,9.7-13.7,17
		c-1.7,7.3-0.3,15.1,4.3,23.4C448.2,213.7,452.1,218.2,456.6,221.1z"/>
	<path class="st0" d="M592.9,240.1c18.1-6.4,23.3-20.2,15.8-41.2c-2.8-7.7-6-13-9.7-16c-3.7-3-9.1-4.7-16.1-5
		c4.7-3.9,7.5-8.1,8.3-12.6c0.8-4.5-0.2-10.7-3-18.4c-7.3-20.3-19.2-27.6-35.6-21.7l-21,7.5l41.1,114.7L592.9,240.1z M550.5,140
		c0.1-0.1,0.3-0.2,0.7-0.3l0.7-0.2l1.2-0.4c9-3.2,15.7,1.4,20.1,13.8c2.6,7.3,3.3,12.9,2,16.6c-1.4,3.6-5,6.5-11.1,8.6L550.5,140z
		 M583.2,190.1c3.6,2,6.7,6.7,9.3,14c2.6,7.1,3.1,12.5,1.6,16.1c-1.5,3.6-5.4,6.5-11.8,8.8l-13.9-38.7
		C574.7,188.1,579.6,188,583.2,190.1z"/>
	<path class="st0" d="M639.8,225.1l-1.1-24.2l23.5-5.7l10,22l15.8-3.8L634,101.2l-12.5,3l2.8,124.6L639.8,225.1z M648.9,165.5
		l8.1,18l-19,4.6l-0.8-15.9c-0.4-8.5-1-16.6-1.6-24.2c-0.6-7.6-1.5-15-2.5-22.2C638.2,140,643.4,153.2,648.9,165.5z"/>
	<polygon class="st0" points="738.1,206.8 736.1,193 709.5,196.8 694.2,90 677.9,92.3 695.1,212.9 	"/>
	<polygon class="st0" points="789.2,204 788.4,190.1 761.6,191.6 755.6,83.9 739.1,84.8 745.9,206.4 	"/>
	
		<rect x="745.8" y="135.5" transform="matrix(1.564361e-02 -0.9999 0.9999 1.564361e-02 650.362 947.986)" class="st0" width="121.8" height="16.5"/>
	<path class="st0" d="M869.8,201.2c5.9-5.6,9.2-13.1,10.1-22.4c0.6-6.9,0-12.9-2-17.8c-2-5.1-6-11.4-12-18.8c-3.3-3.9-6-7.3-8-10.1
		c-2-2.8-3.5-5-4.3-6.7c-1.7-3.2-2.3-6.9-1.9-11.2c0.4-4.8,2.2-8.5,5.2-11.2c3-2.8,6.7-4,11-3.6c4,0.4,8.3,2.6,13,6.6l1.5-15.9
		c-5-3.3-10.5-5.2-16.3-5.7c-8.4-0.8-15.4,1.4-20.9,6.6c-5.4,5.1-8.6,12.4-9.5,21.9c-0.6,7,0.1,12.9,2.2,17.8
		c1.1,2.5,2.9,5.4,5.3,8.8c2.4,3.4,5.5,7.3,9.3,11.8c2.4,2.9,4.4,5.5,6,7.9c1.6,2.3,2.8,4.4,3.6,6.2c1.6,3.7,2.2,7.7,1.8,12.1
		c-0.5,5.1-2.1,9-4.9,11.7c-2.8,2.7-6.4,3.9-10.9,3.5c-4.8-0.4-9.9-3-15.3-7.8l-1.5,16.2c4.6,4.3,10.4,6.7,17.4,7.4
		C856.9,209,863.9,206.7,869.8,201.2z"/>
	<polygon class="st0" points="915.2,216.2 934.8,110.6 952.9,114 955.5,99.8 902.9,90.1 900.3,104.2 918.9,107.7 899.3,213.3 	"/>
	<polygon class="st0" points="955.9,225.8 986.5,107.9 970.6,103.8 940,221.7 	"/>
	<path class="st0" d="M1004.4,242.7c4.6,1.6,9.2,2,13.7,1.2l4.9-14.3c-4.1,0.4-7.5,0.1-10-0.8c-14.6-5-17-21.7-7.3-50.2
		c2.7-7.9,5.5-14.6,8.3-20.1c2.8-5.5,5.7-9.9,8.7-13.1c3-3.2,6.2-5.2,9.4-6.2c3.3-0.9,6.7-0.7,10.4,0.5c2.7,0.9,5.7,3,9,6.3l4.8-14
		c-3.5-3.7-7.4-6.3-11.7-7.8c-11.8-4-22.3-2-31.4,6.1c-9.2,8.1-17.3,22.4-24.3,43C975.8,211.7,981,234.7,1004.4,242.7z"/>
	<path class="st0" d="M1061,191.9c1.2,4,2.8,8.7,4.9,14.2c1.3,3.6,2.4,6.7,3.1,9.4c0.7,2.7,1.2,5.1,1.4,7c0.3,4-0.4,8-2.3,12.1
		c-2.1,4.6-5,7.8-8.5,9.4c-3.5,1.7-7.3,1.6-11.4-0.3c-4.4-2-8.3-6.1-11.9-12.4l-6.8,14.8c2.9,5.5,7.6,9.8,14,12.7
		c7.6,3.4,15,3.6,22.4,0.4c7.4-3.3,13-9.3,16.9-17.9c2.9-6.3,4.2-12.2,4-17.5c-0.2-5.5-1.9-12.7-5.1-21.7c-1.8-4.8-3.2-8.9-4.2-12.1
		c-1-3.3-1.6-5.9-1.9-7.8c-0.5-3.6,0.1-7.3,1.9-11.2c2-4.4,4.9-7.4,8.6-8.9c3.8-1.6,7.6-1.6,11.5,0.2c3.6,1.7,7,5.1,10.1,10.5
		l6.7-14.6c-3.7-4.7-8.2-8.3-13.5-10.7c-7.7-3.5-15-3.7-21.9-0.7c-6.8,3-12.2,8.9-16.2,17.5c-2.9,6.4-4.2,12.2-3.8,17.5
		C1059.1,184.6,1059.8,187.9,1061,191.9z"/>
	<path class="st0" d="M1128.1,304.3c6.6,4.5,14.3,5.6,23.1,3.3l-0.5,11.1l14.9,10.1l0.6-24.1l21-7.7l-4-12.7l-16.2,6.1l1.5-30.8
		c5.1-1,9.4-2,13-3.1c3.6-1.1,6.5-2.2,8.8-3.4c4.6-2.3,8.5-5.7,11.6-10.2c3.6-5.4,4.9-10.9,3.6-16.6c-1.2-5.6-4.7-10.4-10.4-14.3
		c-5.7-3.9-11.6-5.3-17.8-4.2c-6.1,1.1-11.1,4.5-14.8,10c-5.1,7.4-7.8,17.3-8.2,29.4c-8.8,1.8-15.6,4-20.5,6.6
		c-4.8,2.6-8.8,6.1-11.8,10.7c-4.6,6.7-6.3,14-5.1,21.8C1118.2,294.1,1122,300.1,1128.1,304.3z M1175,225.9c1.6-2.4,3.8-3.8,6.5-4.5
		c2.8-0.6,5.3-0.2,7.5,1.3c2.1,1.4,3.4,3.3,3.7,5.7c0.3,2.3-0.4,4.8-2.1,7.2c-1.8,2.7-4.2,4.7-7,6c-1.4,0.7-3.3,1.4-5.6,2
		c-2.3,0.6-5,1.3-8.2,2C1171,235.9,1172.7,229.3,1175,225.9z M1135.3,272.4c3.3-4.9,9.4-8.4,18.3-10.5l-1.7,32.7
		c-6.3,2-11.1,1.8-14.6-0.6c-3.1-2.1-4.9-5.3-5.3-9.5C1131.5,280.3,1132.6,276.3,1135.3,272.4z"/>
	<path class="st0" d="M1209,367.3l41.6-42.8l-25.5,58.3l12,11.6l25.2-58.1c4.8,2.9,10.1,3.4,15.9,1.6c5.8-1.8,11.7-5.8,17.8-12
		c7.9-8.2,11.8-16.1,11.7-23.9c-0.2-6.1-3.5-12.3-9.9-18.5l-15.6-15l-85,87.4L1209,367.3z M1284.6,289.5l2,1.9
		c1.9,1.8,3.2,3.6,4,5.5c0.8,1.9,1,3.8,0.7,5.8c-0.3,2-1.2,4.2-2.7,6.5c-1.5,2.3-3.5,4.8-6.2,7.5c-4.9,5-9.3,7.7-13.2,8
		c-3.9,0.3-8.2-1.8-12.8-6.2L1284.6,289.5z"/>
	<path class="st0" d="M1255.7,395.8c-4.5,9.9-2.9,19.4,4.6,28.6c7.2,8.7,15.8,12,25.8,10c10.1-2,23.4-9.9,40.1-23.5
		c11.9-9.7,20.5-17.7,25.7-23.9c5.7-6.6,9.4-12.7,10.9-18.2c2.3-8.3,0.2-16.3-6.3-24.2c-7.3-8.8-15.9-12.2-26-10.2
		c-10,2.1-23.4,10-40.2,23.7C1271.6,373.5,1260.1,386.1,1255.7,395.8z M1330.5,351.3c6.2-2.5,11.1-1.6,14.8,3
		c3.7,4.5,3.5,9.7-0.7,15.6c-4.1,5.8-14.4,15.4-30.7,28.8c-12.6,10.3-21.9,16.6-27.9,18.9c-6,2.3-10.8,1.3-14.3-3
		c-3.6-4.3-3.5-9.4,0.2-15.1c4.1-5.9,13-14.5,26.8-25.8C1313.8,361.3,1324.4,353.9,1330.5,351.3z"/>
	<path class="st0" d="M1306.4,488.3c2.7,4.1,6,7.2,10,9.3l12.7-8.2c-3.5-2.3-6-4.5-7.4-6.7c-8.4-12.9,0-27.6,25.2-44
		c7-4.6,13.3-8.2,19-10.8c5.6-2.6,10.6-4.3,15-4.9c4.3-0.7,8.1-0.4,11.2,0.9c3.1,1.3,5.8,3.6,7.9,6.8c1.6,2.4,2.6,5.9,3.2,10.5
		l12.4-8.1c-0.4-5.1-1.9-9.5-4.4-13.3c-6.8-10.4-16.3-15.2-28.5-14.5c-12.2,0.8-27.5,7.1-45.8,19
		C1303.1,446.3,1292.9,467.6,1306.4,488.3z"/>
	<polygon class="st0" points="1346.9,559.4 1391,507.7 1454.6,502 1447,487.3 1383.9,493.9 1338.4,543 	"/>
	<polygon class="st0" points="1327.9,522.7 1383.9,493.9 1436.5,467 1429,452.4 1320.4,508.1 	"/>
	<polygon class="st0" points="1365.3,607 1378.3,602 1368.3,576.6 1407.1,561.4 1416,583.9 1428.9,578.8 1420.1,556.3 1456.1,542.2 
		1466.1,567.6 1479,562.5 1463,521.9 1349.3,566.4 	"/>
	<polygon class="st0" points="1475.1,597.6 1371.7,627.8 1376.3,643.3 1479.7,613 1484.9,630.6 1498.7,626.6 1483.6,575.4 
		1469.8,579.4 	"/>
	<path class="st0" d="M1386,683.2l58.7-11.2l-54.5,33.1l3.1,16.3l54.1-33.1c2.3,5.1,6.3,8.6,12,10.4c5.8,1.9,12.9,2,21.5,0.4
		c11.2-2.1,19-6.4,23.4-12.9c3.4-5.1,4.2-12,2.5-20.8l-4.1-21.2l-120,22.9L1386,683.2z M1492.7,662.9l0.5,2.7
		c0.5,2.5,0.5,4.8,0.1,6.8c-0.4,2-1.4,3.7-2.8,5.2c-1.4,1.5-3.4,2.7-6,3.8c-2.5,1-5.7,1.9-9.4,2.6c-6.9,1.3-12,1-15.4-1.1
		c-3.4-2-5.7-6.2-6.9-12.4L1492.7,662.9z"/>
	<path class="st0" d="M1395.4,745.8l1.4,16.3l52.3-4.5l71.2,15.2l-1.5-17.1l-28.1-4.4l-4.3-0.6l-11.1-1.6c-2.6-0.4-7.2-0.8-13.8-1.2
		c6.4-1.7,14.3-4.4,23.6-8.2c1.1-0.5,2.1-0.9,3-1.2c0.9-0.3,1.8-0.7,2.5-1l25.8-10.3l-1.5-17.3l-67.2,31.3L1395.4,745.8z"/>
	<path class="st0" d="M1397.9,828.1l23.4,6.3l-1.7,24.1l-24.1,2.9l-1.1,16.2l123.7-17.5l0.9-12.7l-120-35L1397.9,828.1z
		 M1433.8,837.6l15.4,4.1c8.3,2.2,16.2,4.1,23.6,5.8c7.4,1.7,14.8,3.1,22,4.4c-15.1,0.5-29.3,1.4-42.7,2.9l-19.7,2.3L1433.8,837.6z"
		/>
	<path class="st0" d="M1484.9,896.3c-7-1.2-13-0.9-18,0.8c-2.6,0.9-5.6,2.4-9.2,4.6c-3.6,2.2-7.8,4.9-12.5,8.3
		c-3.1,2.2-5.9,4-8.3,5.4c-2.5,1.4-4.6,2.4-6.4,3.1c-3.8,1.3-7.9,1.6-12.3,0.9c-5-0.9-8.8-2.8-11.3-5.8c-2.5-3-3.4-6.7-2.6-11.1
		c0.8-4.7,3.8-9.6,9-14.6l-16.1-2.8c-4.6,4.2-7.5,9.8-8.7,16.7c-1.4,8.2,0.4,15.4,5.3,21.6c5.1,6.3,12.3,10.2,21.6,11.8
		c6.9,1.2,12.9,1,18-0.6c5.3-1.6,11.9-5,19.7-10.5c4.2-3,7.8-5.4,10.7-7.2c2.9-1.8,5.3-3.1,7.1-3.8c3.3-1.4,7.1-1.7,11.3-1
		c4.8,0.8,8.4,2.8,10.8,6c2.6,3.2,3.5,6.9,2.7,11.2c-0.7,3.9-3.2,8.1-7.6,12.4l15.8,2.7c3.7-4.8,6-10,7-15.8
		c1.4-8.3-0.2-15.4-4.9-21.3C1501.3,901.7,1494.3,897.9,1484.9,896.3z"/>
	<path class="st0" d="M1472.8,961.5c-6.8-1.8-12.8-2.1-17.9-0.9c-2.6,0.6-5.8,1.9-9.6,3.7c-3.8,1.8-8.2,4.2-13.3,7.1
		c-3.3,1.9-6.2,3.4-8.8,4.6c-2.6,1.2-4.8,2-6.7,2.5c-3.9,1-8,0.9-12.3-0.3c-4.9-1.3-8.5-3.6-10.7-6.8c-2.2-3.2-2.7-7-1.6-11.3
		c1.3-4.6,4.7-9.2,10.4-13.7l-15.7-4.2c-5,3.8-8.4,9-10.3,15.8c-2.2,8-1.1,15.4,3.3,22c4.5,6.7,11.3,11.3,20.4,13.8
		c6.7,1.8,12.7,2.2,18,1.1c5.4-1,12.3-3.9,20.6-8.6c4.5-2.6,8.2-4.6,11.3-6.1c3.1-1.5,5.6-2.6,7.4-3.1c3.5-1.1,7.3-1.1,11.4,0.1
		c4.7,1.3,8.1,3.6,10.2,7c2.2,3.4,2.8,7.2,1.7,11.4c-1,3.9-4,7.7-8.7,11.6l15.5,4.2c4.1-4.4,6.9-9.4,8.4-15
		c2.2-8.1,1.2-15.3-2.9-21.6C1488.7,968.4,1482,964,1472.8,961.5z"/>
	<path class="st0" d="M1427.5,1017c-22.7-8.9-39.3-12.8-50-11.8c-10.9,1-18.5,6.9-22.8,17.9c-4.1,10.5-2.8,19.6,3.9,27.3
		c6.7,7.8,20.1,15.6,40.2,23.4c14.3,5.6,25.5,9.2,33.5,10.7c8.6,1.8,15.7,2,21.2,0.7c8.3-2.1,14.4-7.8,18.1-17.3
		c4.2-10.6,2.9-19.8-3.8-27.6C1461.2,1032.7,1447.8,1024.9,1427.5,1017z M1457.6,1062.9c-2.1,5.4-6.8,7.8-14,7
		c-7.1-0.8-20.5-5-40.2-12.7c-15.2-6-25.3-11-30.2-15.1c-4.9-4.1-6.4-8.8-4.4-13.9c2.1-5.2,6.5-7.6,13.4-7.1
		c7.2,0.7,19.1,4.2,35.7,10.7c18.1,7.1,29.8,12.7,35,16.8C1458.2,1052.7,1459.8,1057.5,1457.6,1062.9z"/>
	<path class="st0" d="M1392.1,1089.8c-35.7-18.8-59.4-17.3-70.9,4.5c-2.3,4.3-3.4,8.7-3.3,13.3l13.4,7c0.3-4.1,1-7.4,2.3-9.8
		c7.2-13.6,24.2-13.4,50.8,0.6c7.4,3.9,13.6,7.7,18.7,11.3c5,3.6,8.9,7.2,11.6,10.6c2.7,3.5,4.2,6.9,4.6,10.2
		c0.4,3.4-0.3,6.8-2.1,10.2c-1.3,2.5-3.9,5.1-7.7,7.9l13.1,6.9c4.2-2.8,7.4-6.3,9.6-10.3c5.8-11,5.4-21.6-1.2-31.9
		C1424.4,1110.1,1411.4,1099.9,1392.1,1089.8z"/>
	<polygon class="st0" points="1301.1,1130.3 1404.4,1195.3 1413.2,1181.4 1309.9,1116.4 	"/>
	<path class="st0" d="M1288.3,1149.5l16.2,18l-14.5,19.3l-21.8-10.6l-9.8,13l113.4,52.2l7.7-10.2l-81.7-94.3L1288.3,1149.5z
		 M1324,1188.7c5.8,6.3,11.4,12.2,16.7,17.6c5.3,5.4,10.7,10.6,16.1,15.6c-12.9-7.8-25.4-14.7-37.5-20.6l-17.7-8.7l11.7-15.6
		L1324,1188.7z"/>
	<polygon class="st0" points="1328.7,1271 1248.8,1199 1237.9,1211 1317.9,1283 1305.6,1296.6 1316.3,1306.2 1352.2,1266.6 
		1341.5,1257 	"/>
	<polygon class="st0" points="1208.3,1240.7 1293,1328.4 1304.9,1317 1220.1,1229.3 	"/>
	<path class="st0" d="M1238.7,1300.3c-15.3-18.9-27.8-30.6-37.5-35c-9.9-4.6-19.5-3.1-28.7,4.3c-8.8,7-12.2,15.6-10.3,25.6
		c1.9,10,9.7,23.4,23.2,40.2c9.6,12,17.6,20.6,23.7,25.9c6.6,5.8,12.6,9.5,18.1,11.1c8.3,2.4,16.4,0.3,24.4-6.1
		c8.9-7.1,12.4-15.7,10.5-25.8C1260.1,1330.6,1252.3,1317.2,1238.7,1300.3z M1241.9,1355.1c-4.6,3.7-9.8,3.4-15.6-0.9
		c-5.8-4.2-15.3-14.5-28.6-30.9c-10.2-12.7-16.5-22.1-18.7-28c-2.2-6-1.2-10.8,3.1-14.2c4.4-3.5,9.4-3.4,15.2,0.4
		c5.9,4.1,14.4,13.1,25.6,27c12.2,15.1,19.5,25.7,22.1,31.9C1247.5,1346.5,1246.5,1351.4,1241.9,1355.1z"/>
	<path class="st0" d="M1124.5,1306.1l28.8,44.6c0.8,1.3,1.5,2.4,2.2,3.5c0.7,1,1.2,1.9,1.7,2.5l8.8,12.3l7.3,10.1
		c0.4,0.6,0.9,1.2,1.5,2c0.6,0.8,1.3,1.7,2.2,2.8c-1-1-1.9-1.9-2.6-2.6c-0.8-0.8-1.4-1.4-1.9-2c-4.2-4.3-8.3-8.4-12.5-12.2
		c-4.1-3.8-8.2-7.4-12.4-10.8l-44.7-36.9l-13.1,8.1l64.5,103.4l14-8.7l-24.1-38.6c-3.6-5.7-7.6-11.6-12.2-17.8
		c-4.6-6.1-9.9-12.9-16-20.2c11.3,11.3,22.6,21.5,33.9,30.7l39.6,32.6l13-8.1l-64.5-103.4L1124.5,1306.1z"/>
	<path class="st0" d="M673.1,503.7c-42.3,51.2-84.6,102.4-126.9,153.5h98.1c19.5-23.6,39.1-47.3,58.6-70.9
		c10.5-12.8,21.1-25.5,32.7-39.6c7.6,6.3,14.5,11.9,23.2,19c4.8-17.3,9.6-31.9,12.7-46.5c5.4-17.6,11.1-32.2,23.9-46.4
		c15.2-16.8,53.7-71.9,65.9-90.7c13.3-20.4,13.3-20.4,23.2-43.4c5.3-10.3,7.6-22.7-1.1-29.9c-8.6-7.1-19.9-2.6-29.7,4
		c-15,10-23.7,16.1-43.5,33c-27.5,28.6-52.9,59.3-79.7,88.7c-6.5,7.1-14.5,13.5-22.6,17.9c-16.7,9.2-33.9,17-52.6,26.1
		c8.1,7.5,14.8,13.7,21.3,19.8C674.8,501.2,674.1,502.6,673.1,503.7z"/>
	<path class="st0" d="M350.5,1019c3.9,3,7.6,6.3,11.6,9.5c5.7-6.3,10.1-11,15.1-16.6c6.1,4.4,11.7,8.4,17.6,12.6
		c17.8-15.7,26.9-32.5,28.8-52.9c0.6-6.5,1.5-13.1,2.7-19.7h-55V864c-0.8,0.4-1.6,0.8-2.3,1.1c-18.7,7.9-37.5,16.5-56.4,22.2
		c-19.2,5.8-29.5,20.7-41.5,37c5.6,4.6,10.6,8.7,16.1,13.2c-4.9,7-9.1,12.9-13,18.4c7.4,9.8,23.9,11.5,16.7,30.7
		c-0.4,1,1.7,2.5,2.9,3.5c1,0.9,2.1,1.7,3.1,2.6c-9.3,1.3-20.5,5.6-32.5,12.6c8.5,22.2,18.3,43.7,29.4,64.5
		c16.9-21.4,27-42.4,27.6-57.1c1.2,1,2.5,2,3.7,2.9c1.9,1.5,6.3,2.6,7.7,1.4C341.9,1009.1,345.8,1015.3,350.5,1019z"/>
	<path class="st0" d="M770.6,1078.2C770.6,1078.2,770.6,1078.2,770.6,1078.2C770.6,1078.2,770.6,1078.2,770.6,1078.2L770.6,1078.2z"
		/>
	<path class="st0" d="M775.5,1084.6C775.5,1084.6,775.5,1084.7,775.5,1084.6C775.5,1084.7,775.5,1084.7,775.5,1084.6L775.5,1084.6z"
		/>
	<path class="st0" d="M776.6,1082.9l-0.2-0.1c-0.6-1.7-1.5-3.2-3.3-3.9l0.1,0c-0.9,0.1-1.8,0-2.5-0.6c-0.3,0.2-0.5,0.4-0.8,0.5
		c-0.2-0.2-0.5-0.4-0.7-0.6l0,0.1c-7.4,0.7-14,3.5-20.4,7.3c-52.2,30.8-104.4,61.5-156.7,92c-4.1,2.4-4.3,4.2-1.4,7.3
		c1.7,2.9,3.4,5.8,5.2,8.7c1.5,4.2,3.6,1.2,5.1,0.3c47.9-28.1,95.7-56.2,143.5-84.3c8.7-5.1,18-9.5,24.9-17.1c2.7-2,3.9-5.2,6.1-7.7
		C775.4,1083.8,775.2,1082.9,776.6,1082.9z"/>
	<path class="st0" d="M1329.7,733.7c3.2-2.4,4.9-5.9,7.4-8.8c3.4-3.7,6.1-8,8.6-12.3c2.2-2,3.2-4.7,4.7-7.1c4.4-7.2,3-14.3-3.8-19.9
		c-2.5-2.5-5.4-3.7-9-2.8c-2.7,0.1-5.5,0.3-8.2,0.4c-7.7,0.2-15.3,1-22.8,2.8c-3.8,0-7.5,1-11.1,2.2c-0.4,0-0.9,0.1-1.3,0.1
		c-0.5,0.2-1.1,0.4-1.6,0.6c-7.4,1.2-14.4,3.4-20.9,7.1c-12.8,7.3-25.5,14.9-38.2,22.3c-0.9,0.5-1.7,1-2.6,1.6V800
		c24.6-14.6,49.3-29.1,73.9-43.7C1314.5,750.5,1322.8,742.9,1329.7,733.7z"/>
	<path class="st0" d="M550.3,1183.3C550.3,1183.3,550.3,1183.3,550.3,1183.3c-0.1-0.1-0.1-0.1-0.1-0.1L550.3,1183.3z"/>
	<path class="st0" d="M729.3,1004.9c0.1-1.9-0.5-3.5-1.9-4.8l0-0.2c-1.4,1-2.7-0.6-4.1,0c-0.2-0.2-0.3-0.4-0.5-0.5
		c-8.3,0.8-15.6,4.3-22.7,8.5c-51.4,30.3-102.8,60.5-154.2,90.7c-5,3-5,3-1.8,7.8c1.7,2.9,3.4,5.8,5.2,8.7c0.8,2.9,2.3,1.8,4,0.8
		c53-31.2,105.9-62.3,158.9-93.5c2.7-1.6,5.4-3.2,7-6.1c0.7-0.5,1.5-1,2.2-1.5c0.3-0.1,0.5-0.2,0.7-0.5c1.9-2.2,3.8-4.3,5.7-6.5
		l0,0.1c-0.2-0.9,0.1-1.5,1-1.8C728.4,1005.5,728.8,1005.2,729.3,1004.9z"/>
	<path class="st0" d="M567.1,1144.9L567.1,1144.9c-3.1-5.1-6.2-10.3-9.4-15.4c-0.5,0.8-0.1,1.4,0.3,2.1
		c6.9,11.6,13.9,23.1,20.7,34.7c1.4,2.3,2.7,2.2,4.7,1c7.9-4.8,15.9-9.4,23.9-14.1c8.6-5,8.6-5,2.8-13.6c-1.2-2.1-2.5-4.2-3.7-6.3
		c-1.7-2.9-3.4-5.7-5.1-8.6c-2.6-4.5-5.2-8.9-7.7-13.4c-1.1-2-2.1-2.1-3.9-0.9c-10.7,6.5-21.4,12.8-32.1,19.2
		C560.8,1134.6,564,1139.7,567.1,1144.9z"/>
	<path class="st0" d="M583.7,1100c-9.9,6-19.8,11.9-29.9,17.5c-4.1,2.3-1,4.2-0.1,6.2c1,2.2,2,4.1,5,2.1c4.7-3.1,9.7-5.8,14.5-8.6
		c5.1-3,10.1-6.2,15.4-8.9c3.2-1.7,1.7-3.5,0.4-5C587.6,1101.8,587.9,1097.5,583.7,1100z"/>
	<path class="st0" d="M589.2,1177.4c9.7-6,19.6-11.8,29.6-17.4c3.3-1.8,1.9-3.5,0.6-5.4c-1.2-1.8-1.6-4.9-5.2-2.6
		c-4.7,3.1-9.7,5.8-14.5,8.6c-5,2.9-9.9,6-15,8.7c-3.2,1.7-2,3.4-0.7,5.4C585.2,1176.8,585.6,1179.6,589.2,1177.4z"/>
	<path class="st0" d="M585,1179.4c-2.8-4.8-5.3-8.9-7.7-13.1c-5.1-8.7-10.2-17.3-15.4-26c-0.9-1.6-1.9-3.1-2.8-4.7
		c-2-3.4-4-6.8-6-10.2c-0.9-1.6-1.9-3.2-3-5.1c-2.3,3.4-4.8,6.1-6.2,9.4c-1,1.3-2,2.6-3,3.9c-3.9,4.9-6.4,10.8-11.1,15.1l0.1-0.1
		c0.6,1,1.2,2.1,1.9,3.1c0.9,1.6,1.9,3.1,2.8,4.7c5.2,8.9,10.5,17.8,15.7,26.8c0.5-0.3,1-0.5,1.5-0.8
		C562.7,1181.5,573.6,1180.5,585,1179.4z"/>
	<path class="st0" d="M946.1,967.6c8.9-5.3,17.8-10.5,26.7-15.7H933c1.1,1.8,2.2,3.7,3.3,5.5c1.7,3,3.6,6,5.2,9.1
		C942.7,968.9,943.9,968.9,946.1,967.6z"/>
	<path class="st0" d="M891.6,973c0.4-0.2,0.8-0.5,1.3-0.7c-3.7-7.3-3.7-7.3,3.5-11.5c6.4-3.7,6.4-3.7,10.9,3.1c1.2,3.5,4.6,6,4.7,10
		c-4.2,2.4-8.4,4.8-12.6,7.2c-3.4-2-3.9-6.2-6.4-8.8C892.4,972.6,892,972.8,891.6,973c2.2,3.7,4.4,7.4,6.6,11
		c0.8,1.5,1.7,2.9,2.3,4.4c1.6,4.1,3.8,3.9,7.2,1.8c8.2-5.2,16.7-10,25.1-14.9c8.5-5,8.5-5,2.8-13.3c-2-3.4-4-6.8-6-10.2h-50.8
		c1.4,2.4,2.8,4.8,4.2,7.2c-1.3,0.8-2.7,1.6-4,2.4c-1.9-3.2-3.8-6.3-5.7-9.5h-17.8c0,0,0.1,0.1,0.1,0.1c3.3,5.8,6.7,11.5,10,17.3
		c-0.6,0.3-1.1,0.6-1.7,0.9c-3.7-6.1-7.3-12.2-11-18.3h-20.3c-6,3.5-12,7-18,10.5c-0.2,0.7-0.5,1.4-0.7,2.2
		c-26,15.3-52.1,30.6-78.1,45.9c-2.4,0.2-4.2,1.2-5.4,3.2c-2.5,2.2,0.4,3.4,1,5c1.1,1.8,2.2,3.7,3.2,5.5c3.2,5.5,6.4,11,9.6,16.5
		c-2.4,1.5-2.8-0.6-3.6-1.9c-4-6.2-7.1-13-11.7-18.9c-1.2-3.3-2.8-3.8-6-1.8c-16.2,9.8-32.5,19.3-48.8,28.9
		c-23,13.6-45.9,27.1-68.9,40.7c-0.3,3.5,2.5,5.5,3.9,8.2c0.5,0.8,0.9,1.6,1.4,2.3c0.2,0.3,0.3,0.5,0.5,0.8c2.9,5,5.8,9.9,8.7,14.9
		c-2.4,1.6-2.8-0.8-3.5-2c-3.1-5.2-6.1-10.4-9.3-15.5c-1.5-2.3-2.1-5.4-4.9-6.7c-3.6,2.1-7.3,4.3-10.9,6.4c0.4,4.2,3.3,7.1,5.5,10.4
		c0.3,0.5,0.6,1,0.9,1.5c3.3,6.6,7,12.9,11.2,18.9c0.3,0.5,0.6,1,0.9,1.6c3.7,6.4,7.4,12.8,11.2,19.2c5,8.4,4.9,8.2,13.4,3.4
		c3.1-1.8,3.1-3.2,1.4-6c-4.2-6.8-8.2-13.8-12.2-20.8c-0.7-1.3-2.5-2.7,0-4.1c1.2,1.8,2.3,3.6,3.4,5.3c2.7,4.4,5.3,8.9,8,13.3
		c0.5,1.1,1,2.2,1.6,3.2c3.9,6.4,2.6,5.9,8.6,2.4c36.3-21.3,72.5-42.6,108.8-63.9c8.6-5,8.6-5,2.8-13.3c-2.6-4.5-5.2-8.9-7.9-13.4
		c-1-1.9-2-3.7-3-5.6c0.7-0.4,1.4-0.9,2.1-1.3c1.6,2.6,3.2,5.1,4.8,7.7c1.9,3.1,3.7,6.3,5.6,9.4c1,1.8,2.3,3.6,3,5.6
		c1.8,4.5,4,4.2,7.8,1.9c34.8-20.6,69.7-41.1,104.5-61.6c10.2-6,10.2-6,3.4-15.8c-1.9-3.2-3.7-6.3-5.6-9.5c-1.4-2.6-2.9-5.3-4.4-7.9
		c0.7-0.4,1.4-0.9,2.1-1.3c1.9,3.1,3.8,6.2,5.7,9.3c1.6,2.8,3.1,5.5,4.7,8.3c6.4,10.8,6.4,10.7,16.9,3.5c1.9-1.3,1.9-2.2,0.9-4
		c-3.2-5.1-6.3-10.3-9.4-15.5c-1.8-3.2-3.6-6.3-5.4-9.5c1.3-0.8,2.6-1.6,4-2.4C888.3,967.9,890,970.5,891.6,973z M863.1,970.6
		c-22.4,13.2-44.8,26.5-67.3,39.7C818.3,997.1,840.7,983.8,863.1,970.6L863.1,970.6z"/>
	<path class="st0" d="M512,1197.9c1.5,2.8,3.3,3.8,6.3,3.2c0.5-0.4,1-0.7,1.5-1c-0.5-1.2,0.1-1.9,1-2.6c3.3-2.3,5.9-5.4,8.8-8.2
		c0.9-0.8,1.4-2.6,3.2-1.6c0.4-0.4,0.8-0.8,1.2-1.2c2.5-4.3-0.1-7.6-2.2-11c-1.5-2.4-3-5-4.4-7.5c-3.6-6.1-3.6-6-10.7-4.1
		c-3.2,0.8-6.2,3.2-9.8,1.7c-0.6,0.2-1.1,0.5-1.7,0.7c-0.4,1.9-1.3,2.3-2.7,0.8c-0.6,0.3-1.1,0.5-1.7,0.8c-5.8,3.4-2.4,6.9-0.2,10.5
		c0.1,0.2,0.2,0.3,0.3,0.5c-19.7-11.9-65.2-3.6-111.3,21.7c22,22.5,45.8,43.2,71.2,61.9c31.1-22.8,50.6-48.5,50.1-66.6
		C511.2,1196.5,511.7,1197.2,512,1197.9z"/>
	<path class="st0" d="M538.7,1184c1.6,0,3.1,0,4.7,0c0.7-0.3,1.3-0.7,2.1-0.3c2.6-1.3,0.3-2.6-0.2-3.5c-4.9-8.5-9.9-16.9-14.9-25.3
		c-0.6-1.1-0.9-2.7-2.7-2.7c0.2,0.9-0.5,1.3-1.1,1.7c0.2,0.9-0.5,1.3-1.1,1.7c0.2,0.9-0.5,1.3-1.1,1.7c0,1.2-0.7,2.2,0.1,3.5
		C529.2,1168.5,534,1176.3,538.7,1184z"/>
	<path class="st0" d="M898.1,975.7c0.8,1.6,1.8,2.3,3.6,1.1c1.9-1.3,4-2.2,5.9-3.5c2.5-1.8,0.1-3.5-0.8-4.5c-2-2.5-1.9-7.9-6.1-7.2
		c-7.1,1.1-8.2,4.7-4.6,10.7C896.7,973.4,897.4,974.5,898.1,975.7z"/>
	<path class="st0" d="M1125.5,397.2c0,0,0.1,0,0.1,0c0,0,0,0,0.1,0L1125.5,397.2z"/>
	<path class="st0" d="M440.4,1149.4c71.3-66,143-131.7,214.5-197.6h-16.7c-69.1,63.6-138.3,127.1-207.4,190.8
		c-1.5,1.4-4.1,2.3-3.6,5.2C430.9,1154.8,434.2,1155.2,440.4,1149.4z"/>
	<path class="st0" d="M389,1106.7c3.9,4.2,7.8,8.5,11.7,12.7c3.7,7.1,6.9,2.5,10.1-0.5c60.5-55.7,121-111.3,181.6-167h-52.2
		c-50.5,46.4-101,92.9-151.4,139.3C380.6,1098.6,380.6,1098.6,389,1106.7z"/>
	<path class="st0" d="M411,1130.5c3.5,3.8,7,7.6,10.6,11.4c3.9,6.7,6.5,0.8,8.8-1.3c62.4-57.2,124.7-114.5,187-171.9
		c6.1-5.6,12.1-11.2,18.1-16.8h-40.1c-61.1,56.2-122.2,112.4-183.4,168.6C408.6,1123.7,404.4,1126.4,411,1130.5z"/>
	<path class="st0" d="M357.9,1073.2c4.6,3,5.9-2,7.9-3.8c42.7-39.1,85.4-78.3,128-117.6h-16c-40.1,36.8-80.2,73.7-120.3,110.4
		C352.3,1067,353,1069.8,357.9,1073.2z"/>
	<path class="st0" d="M367,1083c1.5,1.7,2.9,3.5,4.4,5.1c8,8.7,8,8.7,16.4,1c49.7-45.7,99.5-91.5,149.2-137.2h-39.8
		c-43.7,40.2-87.4,80.3-131.2,120.3C360.2,1077.5,363,1079.7,367,1083z"/>
	<path class="st0" d="M933.9,657.2c1.9-1.8,3.8-3.5,5.7-5.3c9.9-9.1,9.9-9.1-0.3-18.9c-2.7-2.9-5.4-5.9-8.2-8.8
		c-2.7-2.9-5.3-5.8-8-8.7c-3.9-4.2-7.7-8.3-11.6-12.5c-3.4-6.1-6.7-6.4-12.2-1.3c-20,18.5-40,37-60.1,55.4H933.9z M898.8,654.3
		C898.8,654.3,898.8,654.3,898.8,654.3c-1.3-1.9-2.6-3.8-4.3-5.2C896.2,650.5,897.5,652.4,898.8,654.3z"/>
	<path class="st0" d="M966.6,543.4c3.1,3.3,6.1,6.6,9.2,9.9c0.8,0.8,1.5,1.7,2.3,2.5c1.2,1.2,2.3,2.5,3.5,3.7
		c6.6,7.1,13.2,14.2,19.8,21.3c1.5,1.7,3.1,3.4,4.6,5.1c2.1,4.5,5.2,2.2,7.8,1c10.7-4.7,20.5-10.9,29-18.9
		c34.7-32.6,69.5-65.2,104-98c7.4-7,12.8-15.6,15.5-25.7c0.7-0.8,1.5-1.7,2.2-2.5l0.1,0.2c-0.8-1.6-0.2-2.7,1.1-3.5
		c-2.5-3.2,1.3-6,0.8-9.1c3.2-8.3,2.9-17,2.4-25.7c-0.3-5.6-3.4-8.6-9.2-8.3c-2.3-0.9-4.7-1-7.2-0.4c-3.4-0.7-6.7-0.7-10,0.2
		c-5.6,0.6-11.3,1.3-16.9,1.9c-0.8,0.6-1.6,1.2-2.4,1.8v0l0,0v0c-0.4-0.3-0.8-0.6-1.3-0.7c-9.2,4.3-18.7,7.7-26.3,14.8
		c-35.8,33-71.8,65.8-107.8,98.6c-7.8,7.1-14.7,14.9-20,24C966.5,537.7,962.7,540.2,966.6,543.4z"/>
	<path class="st0" d="M1121.9,398.2C1121.9,398.2,1121.9,398.2,1121.9,398.2c0.1,0,0.1,0,0.1,0L1121.9,398.2z"/>
	<path class="st0" d="M1166.1,438.3c-0.1,0.1-0.2,0.1-0.3,0.2c0,0,0,0.1,0.1,0.1L1166.1,438.3z"/>
	<path class="st0" d="M368.4,1127.4c-3.8-4.8-7.8-9.2-14.8-8.5c-0.9,0.6-1.8,1.2-2.8,1.9c0.2,1.5-0.1,3-1.6,3.6
		c-7.5,2.7-6.3,6.3-1.6,11c0.3,0.3,0.7,0.7,1,1c-4-0.8-8.6-1-13.6-0.5c8.8,12.1,18,23.9,27.7,35.3c2.2-6,3.1-11.5,2.8-16.3
		c3.1,3.7,6.4,4.9,10.9,3.5c0.4-0.3,0.8-0.6,1.2-0.8c0.2-0.5,0.5-1.1,0.7-1.6c-1.9-3.6-0.5-4.8,3.2-4.4c0.6-0.9,1.3-1.7,1.9-2.6
		C382.2,1139,373.8,1134.3,368.4,1127.4z"/>
	<path class="st0" d="M414.9,1152.6c0-0.1,0-0.1,0-0.2c-0.1,0-0.1,0.1-0.2,0.1c0,0.1,0,0.2,0,0.2
		C414.8,1152.7,414.9,1152.7,414.9,1152.6z"/>
	<path class="st0" d="M395.5,1151.9c1.9,2.1,4.1,3.9,5.6,6.2c3.4,5.2,6.4,4.5,9.7,0.2c-0.4-3,1.9-4.3,3.9-5.8
		c-0.5-3.1,1.8-4.5,4-5.9c1.1-4.8-3.1-6.9-5.2-10.1c-4.5-7.3-9.8-7-15.9-2.4c-1.6,1.2-3.1,2.5-4.9,3.4c-1.2,0.6-2.2,4.2-4.2,0.7
		c11.2-18.1,11.2-18.1-1.5-30.3c-0.2-0.2-0.4-0.4-0.6-0.6c-1.8-2.5-4-2.7-6.6-1.2c-5.8,3.2-11.6,6.3-17.8,9.7
		c7.4,8,14.4,15.5,21.2,23c2,2.2,3.8,3.7,5.2-0.5C387.3,1144.6,392,1148,395.5,1151.9z"/>
	<path class="st0" d="M345,1089.8c-0.1,0.7-0.1,1.5-0.2,2.2c-0.8,1-2.7,1.8-1.4,3.3c5,5.7,10.2,11.3,15.4,16.8
		c2.3,2.5,4.3,0.5,5.6-1.1c3.6-4.6,6.9-9.5,10.3-14.2c0.8-5.1-3.6-7.4-6.4-9.7c-5.4-4.4-7.6-12.3-15.6-13.6
		c-0.9,0.6-1.7,1.1-2.6,1.7c-0.5-0.5-1-1-1.5-1.5c-5.7,1.9-10.6,5.2-15.5,8.5c0.3,1.1,0.7,2.3,1,3.4
		C337.5,1087.7,338.6,1095.2,345,1089.8z"/>
	<path class="st0" d="M985.5,578.8c4.1,4.6,8.3,9.2,12.4,13.8c1.4,1.6,3,2.5,5.1,0.9c2.4-1.9,1.9-3.9,0-5.7
		c-4.8-4.7-7.8-11.1-13.8-14.6c-0.6-0.7-1.3-1.5-1.9-2.2c-4.3-7.1-10-13-16.4-18.3c-0.6-0.6-1.2-1.3-1.8-1.9
		c-1.4-2.7-2.8-5.5-6.4-5.9c-4.7,1.8-5.4,4.2-1.7,8C969.3,561.4,977.4,570.2,985.5,578.8z"/>
	<path class="st0" d="M418.8,1146.9c0-0.1,0-0.2,0-0.3c0,0-0.1,0-0.1,0.1c0,0.1,0,0.1,0,0.2C418.7,1146.9,418.8,1146.9,418.8,1146.9
		z"/>
	<path class="st0" d="M914.7,602.6c1.6,1.6,3.1,3.3,4.7,4.9c0.8,0.8,1.6,1.6,2.4,2.4c1.9,1.9,3.8,3.9,5.7,5.8
		c3.8,5.4,8.2,10.1,13.2,14.4c1.2,1.5,2.6,3,3.6,4.7c4.3,6.8,8.3,7.1,14.2,1c9.6-9.9,20.2-18.8,30.3-28.2
		c11.5-10.6,11.5-10.6-0.3-21.5c-3.9-5.2-8.2-9.9-13.1-14.1c0-0.5-0.3-0.8-0.8-0.9c-0.8-0.9-1.7-1.9-2.5-2.8
		c-0.8-0.8-1.5-1.7-2.3-2.5c-1.1-1.3-2.3-2.5-3.4-3.8c-3.1-3.2-6.1-6.5-9.2-9.7c-2.2-2.4-3.6-0.1-4.8,1
		c-14,12.7-27.9,25.5-41.7,38.4c-1.2,1.1-3.7,2.3-1.3,4.6C911.1,598.4,912.9,600.5,914.7,602.6z"/>
	<path class="st0" d="M414.9,1152.6c0.5,3.2-2.1,4.4-4,6l0-0.5c0,0-0.1,0.1-0.1,0.1c0,0,0,0.1,0,0.1c-2.4,5.3-2,10,3.3,13.6
		c1.1,0.3,2.1,0.7,3.2,1c3.7-5.3,8.1-10.2,10.6-16.2c-0.7,0-1.4,0.1-2.1,0.1c4-7.8-1.8-8.7-7-10
		C419.2,1149.9,416.8,1151.1,414.9,1152.6z"/>
	<g>
		<path class="st0" d="M698.3,919.2c-0.8,0-1.6-0.4-2.2-1c-0.6-0.6-0.8-1.5-0.8-2.3l12.4-134.6l-7.8,27.1l-0.3,1.1
			c0,0.1,0,0.1,0,0.2l-7,20.5l-29.6,86.9c-0.4,1.2-1.6,2-2.8,2h-34.7c-1.6,0-2.9-1.3-3-2.9l-4.8-108.7c0-0.1,0-0.1,0-0.2l0.3-22.7
			l-26.3,132c-0.3,1.4-1.5,2.4-2.9,2.4h-48.3c-0.9,0-1.8-0.4-2.4-1.1c-0.6-0.7-0.8-1.7-0.6-2.6l33.9-137.8l1.5-6.2l20.4-83
			c0.3-1.3,1.5-2.3,2.9-2.3h59.2c1.6,0,3,1.3,3,3l0.8,115.6l33.5-114.2l0.6-2.1c0.4-1.3,1.5-2.2,2.9-2.2h60.4c0.8,0,1.6,0.3,2.2,0.9
			c0.6,0.6,0.9,1.4,0.8,2.2l-12.1,227c-0.1,1.6-1.4,2.8-3,2.8H698.3z"/>
		<path class="st1" d="M756.6,689.3L756.6,689.3 M756.6,689.3l-0.3,4.9l-2.2,41.5l-2.2,40.8l-1.8,34.1l-0.9,16.1l-4.8,89.6h-0.6
			h-4.8h-1.4h-2.9h-2.3h-34.3l2.9-30.9l1.4-15.5l3.2-35.1l0.2-2.5l1.7-18.6l0.2-2.3l0.2-2l0.1-1.2l0.4-4.5l0.4-4.1l0.8-8.6l1.1-12.2
			l0.3-3.7l2-22.1h-0.6l-7.3,25.5l-8.2,28.5l-0.2,0.8l-0.3,1.1l-1.5,4.5l-0.3,0.8l-0.2,0.6l-2,6l-0.5,1.5l-2.4,7.1l-6.7,19.8
			l-0.5,1.6l-0.8,2.3l-1.2,3.4l-1.1,3.1l-8.6,25.3l-10.7,31.3h-26.1h-3h-5.6l-3.5-79l-1.3-29.6l0.5-41.1l0.1-9.4l0.6-4.2h-0.6
			l-2.5,12.5l-8.8,43.9l-0.3,1.6l-0.6,2.8l-2.6,13.3l-2.7,13.7l-2.7,13.6l-0.6,2.8l-9,44.8l-0.7,3.5l-2.2,10.9h-9.7h-3.1h-35.5
			l1.3-5.2l1-4l4.7-19l12.4-50.4l14.6-59.2l1.5-6.2l11.2-45.6l9.2-37.4h21.7h37.5l0.6,81.8l0.4,52.2h0.6l14.8-50.4l23.9-81.4
			l0.6-2.1h5.9h3.8H756.6 M756.6,683.3L756.6,683.3h-50.7H702h-5.9c-2.7,0-5,1.8-5.8,4.3l-0.6,2.1l-23.9,81.4l-3.9,13.3l-0.1-13.4
			l-0.6-81.8c0-3.3-2.7-6-6-6h-37.5h-21.7c-2.8,0-5.2,1.9-5.8,4.6l-9.2,37.4l-11.2,45.6l-1.5,6.2l-14.6,59.2l-12.4,50.4l-4.7,19
			l-1,4l-1.3,5.2c-0.4,1.8,0,3.7,1.1,5.1c1.1,1.5,2.9,2.3,4.7,2.3h35.5h3.1h9.7c2.9,0,5.3-2,5.9-4.8l2.2-10.9l0.7-3.5l8.9-44.8
			l0.6-2.8l2.7-13.6l2.7-13.7l2.6-13.1l1,22.5l3.5,79c0.1,3.2,2.8,5.7,6,5.7h5.6h3h26.1c2.6,0,4.9-1.6,5.7-4.1l10.7-31.3l8.6-25.3
			l1.1-3.1l1.2-3.5l0.8-2.3l0.5-1.6l6.7-19.8l2.4-7.1l0.5-1.5l2-6l0.2-0.6l0.3-0.8l0.9-2.7l-0.1,0.6l-1.7,18.6l-0.2,2.5l-3.2,35.1
			l-1.4,15.5l-2.9,30.9c-0.2,1.7,0.4,3.3,1.5,4.6s2.7,2,4.4,2h34.3h2.3h2.9h1.4h4.8h0.6c3.2,0,5.8-2.5,6-5.7l4.8-89.6l0.9-16.1
			l1.8-34.1l2.2-40.8l2.2-41.5l0.2-4.7c0-0.2,0-0.3,0-0.5C762.6,685.9,759.9,683.3,756.6,683.3L756.6,683.3z M756.6,695.3
			L756.6,695.3L756.6,695.3L756.6,695.3z"/>
	</g>
	<g>
		<path class="st0" d="M450.3,922.8c-5.6,0-11.1-0.4-16.3-1.2c-11.7-1.8-21.4-5.6-28.7-11.3c-6.2-4.9-10.7-11.4-13.3-19.3
			c-1.9-5.7-2.9-12.1-2.9-19.1c0-4.6,0.4-9.5,1.2-14.6l26.6-168.6c0.2-1.5,1.5-2.5,3-2.5h45c0.9,0,1.7,0.4,2.3,1.1
			c0.6,0.7,0.8,1.6,0.7,2.4l-23.3,146.9l-0.6,3.9c-0.3,1.9-0.6,3.7-0.8,5.3c-0.2,1.4-0.4,2.7-0.5,3.9c-0.5,3.7-0.7,6.8-0.7,9
			c0,0.4,0,0.8,0.1,1.2c0,0.3,0,0.5,0.1,0.8c0.2,3.8,1,7,2.3,9.5l0.1,0.1c0.4,0.6,0.7,1.3,1,1.7c2.1,2.8,6.1,4.2,12,4.2
			c1.2,0,2.5-0.1,3.9-0.2c2.9-0.3,5.3-1,7.2-2c2.9-1.5,5.1-3.4,6.7-6c1.7-2.7,3-5.7,3.9-8.8c0.5-2,1.1-4.6,1.8-7.7
			c0.3-1.7,0.7-3.4,1-5.3v-0.3c0-0.2,0-0.3,0-0.5l24.8-156.5c0.2-1.5,1.5-2.5,3-2.5h45c0.9,0,1.7,0.4,2.3,1.1
			c0.6,0.7,0.8,1.6,0.7,2.4l-13.5,85.4l-0.5,3.2l-8,50.5l-4.2,26.4c-1.2,8.1-3,15.8-5.4,22.9c-2.4,7.3-6.5,14.4-12.2,21.1
			c-5.7,6.9-13.9,12.6-24.2,16.9C479.1,920.6,466,922.8,450.3,922.8z"/>
		<path class="st1" d="M554.5,689.3l-12.3,77.6l-0.6,3.9l-0.6,3.9l-0.5,3.2l-1,6.4l-1.7,10.8l-0.1,0.5l-4,25.4l-0.6,3.7l-0.6,3.6
			l-4.2,26.4c-1.2,8-3,15.5-5.3,22.4c-2.3,6.9-6.2,13.6-11.6,20.2c-5.4,6.5-13.1,11.9-23.1,16.1c-10,4.2-22.6,6.3-37.9,6.3
			c-5.7,0-11-0.4-15.9-1.2c-11.2-1.7-20.3-5.2-27.3-10.7c-5.8-4.6-9.9-10.6-12.4-17.9c-1.8-5.3-2.7-11.3-2.7-18.1
			c0-4.4,0.4-9.1,1.2-14.1l3.1-19.4l23.5-149.2h45l-13,82.1l-8.7,55.1l-1.5,9.7l-0.6,3.9c-0.3,1.9-0.6,3.7-0.8,5.3
			c-0.2,1.4-0.4,2.7-0.5,4c-0.5,3.9-0.7,7-0.7,9.4c0,0.7,0.1,1.4,0.1,2.1c0.2,4.2,1.1,7.8,2.6,10.7c0.4,0.8,0.8,1.6,1.3,2.2
			c2.7,3.6,7.5,5.4,14.3,5.4c1.5,0,2.9-0.1,4.3-0.3c3.2-0.4,5.9-1.1,8.3-2.3c3.3-1.7,5.9-4.1,7.9-7.1c1.9-3,3.3-6.2,4.2-9.6
			c0.6-2.2,1.2-4.8,1.8-7.9c0.4-1.8,0.7-3.6,1.1-5.6v-0.6l14.1-89l8.3-52.2l2.4-15.3h10.2H554.5 M464.8,689.3L464.8,689.3
			 M554.5,683.3h-34.8h-10.2c-3,0-5.5,2.1-5.9,5.1l-2.4,15.3l-8.3,52.2l-14.1,89c0,0.3-0.1,0.6-0.1,0.9v0.1c-0.3,1.6-0.6,3.2-1,5
			c-0.6,3.1-1.2,5.6-1.7,7.6c-0.7,2.8-1.9,5.5-3.5,8c-1.3,2.1-3.2,3.7-5.5,5c-1.6,0.8-3.7,1.4-6.2,1.7c-1.3,0.1-2.5,0.2-3.6,0.2
			c-4.8,0-8-1-9.6-3c-0.2-0.3-0.5-0.8-0.8-1.3l-0.1-0.1c-1.1-2-1.7-4.8-1.9-8.2c0-0.3,0-0.6-0.1-0.8c0-0.4-0.1-0.7-0.1-1
			c0-2.1,0.2-5,0.7-8.6c0.1-1.1,0.3-2.4,0.5-3.9c0.3-1.9,0.5-3.6,0.8-5.2c0,0,0-0.1,0-0.1l0.6-3.9l1.5-9.7l8.7-55.1l13-81.9
			c0.1-0.4,0.1-0.8,0.1-1.1c0-3.3-2.7-6-6-6h0h-45c-3,0-5.5,2.1-5.9,5.1l-23.5,149.2l-3.1,19.4c-0.8,5.3-1.3,10.4-1.3,15.1
			c0,7.3,1,14,3.1,20c2.8,8.5,7.7,15.4,14.3,20.7c7.7,6.1,17.9,10.1,30.1,12c5.4,0.8,11,1.2,16.8,1.2c16,0,29.6-2.3,40.2-6.8
			c10.8-4.6,19.3-10.6,25.4-17.8c5.9-7.1,10.2-14.5,12.7-22.1c2.4-7.2,4.3-15.1,5.5-23.4l4.2-26.3l0.6-3.6l0.6-3.7l4-25.4l0.1-0.5
			l1.7-10.8l1-6.4l0.5-3.2l0.6-3.9l0.6-3.9l12.3-77.6c0.3-1.7-0.2-3.5-1.4-4.8S556.3,683.3,554.5,683.3L554.5,683.3z M554.5,695.3
			L554.5,695.3L554.5,695.3L554.5,695.3z"/>
	</g>
	<g>
		<path class="st0" d="M1165.4,919.2c-1.6,0-2.9-1.2-3-2.8l-1.8-28.2l-0.5-7.2h-40.7l-13.5,36.3c-0.4,1.2-1.6,2-2.8,2h-44.7
			c-1,0-1.9-0.5-2.5-1.3c-0.6-0.8-0.7-1.9-0.3-2.8l88.8-227c0.5-1.2,1.6-1.9,2.8-1.9h47.4c1.6,0,2.9,1.2,3,2.8l13.3,161l1.2,14
			l0.8,10.2l3.4,41.8c0.1,0.8-0.2,1.7-0.8,2.3c-0.6,0.6-1.4,1-2.2,1H1165.4z M1159,839.5c0,0-1.7-57.5-1.7-57.5l0.1-15.3l-4.8,16.2
			l-17,53.3l-1.1,3.3H1159z"/>
		<path class="st1" d="M1194.7,689.3l4.1,49.2l6.3,76.7l2.9,35.1l1.2,14l0.8,10.2l3.4,41.8h-48l-0.8-12.2l-0.3-4.3l-0.2-2.9
			l-0.6-8.9l-0.3-4.4l-0.4-5.6h-45.6l-4.6,12.5l-9.5,25.7h-44.7l7.5-19.2l8.2-21l32-81.9l41-104.8H1194.7 M1130.4,842.5h4.5h1.9
			h14.6h1.5h9.2l-0.3-9.8l-0.1-3.1l-1.4-47.6l0.2-21l0.1-13.3h-0.6l-4.9,16.4l-5.3,17.9l-5.7,17.8l-1.2,3.6l-4.6,14.5l-0.5,1.6
			l-5,15.7l-0.8,2.6L1130.4,842.5 M1194.7,683.3h-47.4c-2.5,0-4.7,1.5-5.6,3.8l-41,104.8l-32,81.9l-8.2,21L1053,914
			c-0.7,1.8-0.5,3.9,0.6,5.6c1.1,1.6,3,2.6,5,2.6h44.7c2.5,0,4.8-1.6,5.6-3.9l9.5-25.7l3.2-8.6h35.8l0.3,4.4l0.6,8.9l0.2,2.9
			l0.3,4.3l0.8,12.2c0.2,3.2,2.8,5.6,6,5.6h48c1.7,0,3.3-0.7,4.4-1.9c1.1-1.2,1.7-2.9,1.6-4.6L1216,874l-0.8-10.2l-1.2-14l-2.9-35.1
			l-6.3-76.7l-4.1-49.2C1200.5,685.7,1197.9,683.3,1194.7,683.3L1194.7,683.3z M1138.6,836.5l4.8-15.2l0.5-1.6l4.6-14.5l1.2-3.6
			l4.7-14.7l1.3,42.8l0.1,3.1l0.1,3.6h-3h-1.5H1138.6L1138.6,836.5z"/>
	</g>
	<g>
		<path class="st0" d="M767.4,919.2c-0.9,0-1.7-0.4-2.3-1.1s-0.8-1.6-0.7-2.4l13.1-82.8l22.8-144.2c0.2-1.5,1.5-2.5,3-2.5h44.1
			c11,0,20.2,0.8,27.2,2.3c0.9,0.2,1.9,0.5,2.9,0.7c4.7,1.4,9.2,3.7,13.3,6.8c1.3,1,2.7,2.1,3.9,3.3c0,0,0.1,0,0.1,0.1
			c0.1,0.1,0.2,0.2,0.2,0.3c5.4,5,9.6,11.3,12.4,18.6c2.8,7.4,4.3,15.3,4.3,23.7c0,3.7-0.3,7.5-0.9,11.3c-1.5,9.2-4.5,17.7-9,25.2
			c-4.4,7.4-10.4,13.9-17.8,19.4c-0.6,0.4-1.1,0.8-1.7,1.2c0,0-0.6,0.4-0.9,0.6c2.1,1.5,4.1,3.3,5.9,5.3c1.8,2.1,3.5,4.4,4.9,6.9
			c0.7,1.3,1.3,2.4,1.7,3.5c0,0,0,0.1,0.1,0.1c0.1,0.3,0.3,0.6,0.4,0.9l0.2,0.5c3.2,7.8,4.9,16.2,4.9,25.1c0,0.7,0,1.5-0.1,2.2
			l0,0.8c-0.1,3-0.3,5.5-0.5,7.9c0,0,0,0.1,0,0.1c-0.9,5.4-2.2,10.5-3.8,15.3c-0.1,0.3-0.3,0.7-0.4,1.1l-0.1,0.3
			c-0.9,2.4-1.9,4.7-2.9,6.8c-5.4,11-13.3,20.2-23.6,27.3c-7.7,5.2-16.4,9.1-26.1,11.7c0,0-0.1,0-0.1,0c-9.5,2.6-19.8,3.9-30.5,3.9
			H767.4z M822,875.4c6.7-0.6,12.3-3.1,16.9-7.6c1.4-1.3,2.7-2.8,3.8-4.4c1-1.4,1.9-2.9,2.7-4.5c1.7-3.5,3-7.6,3.6-12.1
			c0-0.1,0-0.1,0-0.2c0.4-2,0.5-3.9,0.5-5.7c0-0.7,0-1.4-0.1-2.2c-0.2-2.7-0.7-5.1-1.7-7.3c-0.9-2.2-2.2-4.1-3.7-5.7
			c-3.2-3.3-7.6-5.1-13.4-5.5L822,875.4z M837.4,779.1c6-0.6,11-2.9,15.3-6.8c0-0.1,0.1-0.1,0.2-0.2c2.2-2.1,4.1-4.5,5.6-7.2
			c0.5-0.8,0.9-1.7,1.3-2.6c1.2-2.8,2.1-5.8,2.6-9c0-0.1,0-0.5,0-0.7c0-0.6,0.1-1.1,0.1-1.7c0.1-1.2,0.1-2.3,0.1-3.2
			c0-3-0.4-5.6-1.3-7.9c-0.8-2.1-2-3.8-3.5-5.3c-1-0.9-2.2-1.7-3.6-2.4c-2.5-1.2-5.5-1.9-9-2.1L837.4,779.1z"/>
		<path class="st1" d="M847.5,689.3c10.9,0,19.7,0.8,26.6,2.3c0.9,0.2,1.8,0.4,2.6,0.7c4.4,1.3,8.5,3.4,12.4,6.3
			c1.3,0.9,2.5,2,3.7,3.1c0.1,0.1,0.1,0.2,0.2,0.2c5.1,4.8,9,10.6,11.7,17.5c2.7,7,4.1,14.6,4.1,22.6c0,3.6-0.3,7.2-0.9,10.8
			c-1.4,8.9-4.3,17-8.6,24.1c-4.3,7.1-10,13.2-17,18.6c-0.6,0.4-1.2,0.9-1.9,1.3c-1.4,1-2.9,2-4.5,3c3.5,1.9,6.6,4.3,9.2,7.2
			c1.7,1.9,3.2,4,4.5,6.4c0.6,1.1,1.2,2.2,1.7,3.3c0,0,0,0.1,0,0.1c0.2,0.4,0.3,0.8,0.5,1.2c3.1,7.4,4.6,15.3,4.6,23.9
			c0,1-0.1,2-0.1,2.9c-0.1,2.6-0.2,5.1-0.5,7.6c-0.8,5.2-2.1,10.2-3.7,14.8c-0.2,0.4-0.3,0.9-0.5,1.3c-0.8,2.3-1.8,4.4-2.8,6.5
			c-5.2,10.6-12.7,19.3-22.6,26.1c-7.4,5-15.8,8.8-25.2,11.3c0,0,0,0,0,0c-9.4,2.5-19.3,3.8-29.7,3.8h-22.9h-12.5h-8.4l9.7-61.1
			l2.6-16.7l0.8-4.9l1.2-7.9l0.3-1.8l5-31.5l1.2-7.4l14.9-94.3l0.2-1.1l0.1-0.4h0.4h1H847.5 M833.9,782.3c8.3,0,15.2-2.6,20.8-7.8
			c0.1-0.1,0.1-0.1,0.2-0.2c2.5-2.3,4.5-5,6.1-8c0.5-0.9,1-1.8,1.4-2.8c1.3-3,2.3-6.2,2.8-9.8c0-0.3,0-0.5,0.1-0.8
			c0.1-0.6,0.1-1.2,0.1-1.8c0.1-1.1,0.1-2.3,0.1-3.4c0-3.4-0.5-6.3-1.5-8.9c-1-2.5-2.4-4.6-4.2-6.4c-1.2-1.2-2.7-2.1-4.4-2.9
			c-3.4-1.7-7.7-2.5-12.9-2.5l-0.4,2.5l-2.2,14.2l-2.5,15.8l-1.7,10.9l-0.5,3.2L833.9,782.3 M818.5,878.6c9.1,0,16.6-2.9,22.5-8.6
			c1.5-1.5,2.9-3.1,4.2-4.9c1.1-1.5,2.1-3.2,2.9-4.9c1.9-3.8,3.2-8.1,3.9-12.9c0,0,0,0,0-0.1c0.4-2.2,0.6-4.3,0.6-6.2
			c0-0.8,0-1.6-0.1-2.4c-0.2-3.1-0.9-5.8-1.9-8.3c-1-2.5-2.5-4.7-4.4-6.6c-4.2-4.3-10.3-6.5-18.1-6.5l-4.3,27.5L818.5,878.6
			 M847.5,683.3h-42.8h-1h-0.4c-3,0-5.5,2.2-5.9,5.1l-0.1,0.4l-0.2,1.1L782.3,784l-1.2,7.4l-5,31.5l-0.3,1.8l-1.2,7.8l-0.8,4.9
			l-2.6,16.7l-9.7,61.1c-0.3,1.7,0.2,3.5,1.4,4.8s2.8,2.1,4.6,2.1h8.4h12.5h22.9c11,0,21.5-1.3,31.3-4l0,0c0,0,0.1,0,0.1,0
			c9.9-2.7,19-6.7,26.9-12.1c0,0,0,0,0,0c10.7-7.4,19-17,24.6-28.5c1.1-2.2,2.1-4.6,3-7.1l0.1-0.2c0.1-0.4,0.3-0.8,0.4-1.2
			c1.7-4.9,3.1-10.2,4-15.8c0-0.1,0-0.2,0-0.3c0.3-2.4,0.5-5.1,0.6-8.1l0-0.8c0-0.7,0.1-1.5,0.1-2.3c0-9.3-1.7-18.1-5.1-26.2
			c-0.1-0.2-0.1-0.3-0.2-0.5c-0.1-0.3-0.2-0.6-0.4-0.9c0,0,0,0,0-0.1c0-0.1-0.1-0.2-0.1-0.2c-0.5-1.1-1.1-2.2-1.8-3.6
			c-1.5-2.8-3.3-5.3-5.3-7.5c-1-1.1-2-2.2-3.2-3.2c7.4-5.7,13.5-12.3,18-19.8c4.7-7.8,7.9-16.6,9.4-26.3c0.6-3.9,1-7.9,1-11.8
			c0-8.7-1.5-17-4.5-24.7c-3-7.6-7.3-14.2-13-19.6c-0.1-0.1-0.2-0.2-0.3-0.3c0,0-0.1-0.1-0.1-0.1c-1.3-1.2-2.7-2.4-4.2-3.5
			c-4.4-3.3-9.2-5.8-14.3-7.3c-1-0.3-2-0.6-3.1-0.8C868.1,684.1,858.7,683.3,847.5,683.3L847.5,683.3z M841,775.4l0.1-0.9l0.5-3.2
			l1.7-10.9l2.5-15.8l1.8-11.3c2,0.3,3.7,0.8,5.2,1.5c1.1,0.6,2.1,1.2,2.8,1.9c1.2,1.1,2.1,2.5,2.8,4.2c0.7,1.9,1.1,4.2,1.1,6.8
			c0,0.9,0,1.9-0.1,3.1c0,0.5-0.1,1.1-0.1,1.6c0,0.1,0,0.3,0,0.5c0,0,0,0.1,0,0.1c-0.5,2.9-1.3,5.7-2.4,8.2
			c-0.3,0.8-0.7,1.6-1.1,2.3c-1.4,2.5-3,4.7-5,6.5c-0.1,0.1-0.2,0.1-0.2,0.2C847.8,772.7,844.6,774.4,841,775.4L841,775.4z
			 M825.6,871.8l4.1-26.2l3.5-22.1c3.7,0.6,6.6,2.1,8.8,4.3c1.3,1.3,2.3,2.9,3.1,4.7c0.8,1.9,1.3,4,1.4,6.4c0.1,0.8,0.1,1.4,0.1,2
			c0,1.6-0.2,3.3-0.5,5.1c0,0.1,0,0.2-0.1,0.3c-0.6,4.1-1.7,7.9-3.4,11.2c-0.7,1.4-1.5,2.8-2.4,4.1c-1,1.5-2.2,2.8-3.5,4
			C833.6,868.8,829.9,870.8,825.6,871.8L825.6,871.8z"/>
	</g>
	<g>
		<path class="st0" d="M997.2,919.2c-1.4,0-2.6-1-2.9-2.4l-19.9-90.8L960,916.7c-0.2,1.5-1.5,2.5-3,2.5h-45c-0.9,0-1.7-0.4-2.3-1.1
			s-0.8-1.6-0.7-2.4l17.3-109.1L945,688.9c0.2-1.5,1.5-2.6,3-2.6h45.3c8.9,0,17.3,0.5,25,1.4c7.8,0.9,15.5,3.1,22.9,6.6
			c1.4,0.6,2.8,1.4,4.3,2.3c5.7,3.5,10.6,8.2,14.5,14.1c4.8,7.4,7.3,17.1,7.3,28.9c0,4.7-0.4,9.9-1.2,15.2
			c-2.1,13.2-6.8,25.3-13.9,35.7c-6.8,9.9-16,18-27.3,24.1l22.7,101c0.2,0.9,0,1.8-0.6,2.5c-0.6,0.7-1.4,1.1-2.3,1.1H997.2z
			 M985.5,784.1c8.9,0,15.6-2.6,20.7-7.9c5.2-5.4,8.6-12.9,10.1-22c0.4-2.2,0.6-4.4,0.6-6.4c0-5.8-1.7-10.2-5.2-13.4
			c-3.5-3.3-9.7-4.9-18.3-4.9h-3.5l-8.7,54.6L985.5,784.1z"/>
		<path class="st1" d="M993.3,689.3c8.9,0,17.1,0.5,24.6,1.4c7.5,0.9,14.9,3,22,6.3c1.4,0.6,2.7,1.4,4,2.1
			c5.3,3.2,9.9,7.6,13.5,13.2c4.5,6.9,6.8,16,6.8,27.2c0,4.6-0.4,9.5-1.2,14.8c-2,12.8-6.5,24.3-13.4,34.5
			c-6.9,10.1-16.4,18.2-28.2,24.2l5.9,26.1l7.3,32.5l8.7,38.8l1.3,5.9h-11.3h-36.1l-11.5-52.4l-2.1-9.8l-0.3-1.5l-1.9-8.4l-7.2-32.7
			h-0.6l-3.9,24.9l-6.4,40.6l-6.2,39.3h-45l1.6-10.2l4.4-28l1.3-8.5l7-44.3l2.9-18.1l4.9-30.7l0.2-1.4l0.4-2.6l9.6-60.5l3.6-22.7
			l0-0.1h24.9H993.3 M985.5,787.1c9.7,0,17.3-3,23-8.9c5.6-5.9,9.3-13.8,10.9-23.6c0.4-2.4,0.6-4.7,0.6-6.9c0-6.6-2.1-11.8-6.2-15.7
			c-4.1-3.8-10.9-5.7-20.4-5.7h-6l-9.7,60.5L985.5,787.1 M993.3,683.3h-20.4H948c-3,0-5.6,2.2-6,5.2l-3.6,22.6l-9.6,60.5l-0.4,2.6
			l-0.2,1.4l-4.9,30.7l-2.9,18.1l-7,44.3l-1.3,8.5l-4.4,28l-1.6,10.2c-0.3,1.7,0.2,3.5,1.4,4.8s2.8,2.1,4.6,2.1h45
			c3,0,5.5-2.1,5.9-5.1l6.2-39.3l5.7-35.7l0.7,3.2l1.9,8.4l0.3,1.5l2.1,9.7l11.5,52.4c0.6,2.8,3,4.7,5.9,4.7h36.1h11.3
			c1.8,0,3.5-0.8,4.7-2.3c1.1-1.4,1.6-3.3,1.2-5.1l-1.3-5.9l-8.7-38.8l-7.3-32.5l-4.9-21.7c10.8-6.2,19.7-14.2,26.3-24
			c7.4-10.8,12.3-23.3,14.4-36.9c0.8-5.5,1.3-10.8,1.3-15.7c0-12.4-2.6-22.6-7.8-30.5c-4.1-6.3-9.3-11.3-15.4-15.1
			c-1.6-1-3.1-1.8-4.6-2.5c-7.7-3.6-15.7-5.9-23.8-6.8C1010.9,683.7,1002.3,683.3,993.3,683.3L993.3,683.3z M992.4,732.3h0.9
			c7.7,0,13.4,1.4,16.3,4.1c2.9,2.6,4.3,6.3,4.3,11.2c0,1.9-0.2,3.9-0.5,5.9c-1.4,8.6-4.5,15.5-9.3,20.5c-4.5,4.7-10.5,7-18.5,7
			l-1,0L992.4,732.3L992.4,732.3z"/>
	</g>
	<path class="st0" d="M800,0C358.2,0,0,357,0,797.4c0,440.4,358.2,797.4,800,797.4c441.8,0,800-357,800-797.4
		C1600,357,1241.8,0,800,0z M1355,1350.6c-148.2,147.8-345.3,229.1-555,229.1c-209.6,0-406.7-81.4-555-229.1
		C96.8,1202.8,15.2,1006.4,15.2,797.4c0-209,81.6-405.4,229.9-553.2C393.3,96.5,590.4,15.1,800,15.1c209.6,0,406.7,81.4,555,229.1
		c148.2,147.8,229.9,344.2,229.9,553.2C1584.8,1006.4,1503.2,1202.8,1355,1350.6z"/>
	<path class="st0" d="M800,31.7c-423.6,0-768.2,343.5-768.2,765.8c0,422.2,344.6,765.8,768.2,765.8c423.6,0,768.2-343.5,768.2-765.8
		C1568.2,375.2,1223.6,31.7,800,31.7z M800,1539.9c-234.5,0-443.7-108.1-580.2-276.9c-3.6-4.4-7.1-8.8-10.5-13.3
		c-96.6-125.2-154.1-282-154.1-452.2C55.1,387.4,388.6,54.9,800,54.9c411.4,0,744.9,332.4,744.9,742.5
		C1544.9,1207.5,1211.4,1539.9,800,1539.9z"/>
	<path class="st0" d="M1211.7,1015.3c-5.2,1.4-10.3,3.6-15.5,5.4c-0.5,0.2-1,0.7-1.4,0.6c-0.3,0.3-0.6,0.6-0.9,0.9
		c-4.9,2.1-9,3.7-12.5,5.1c-2.1,0.4-4.1,0.7-6.1,0.8c-17.6-5.2-47.5-1.1-78.5,12c-26.4,11.2-47.5,26.5-58.3,40.8L798.5,1183
		c-2.1,0.9-4.3,1.8-6.9,2.9c-0.9-2.1-1.6-3.8-2.3-5.3c-4.5-1-8.3-1.8-13.2-2.9c2.5,5.8,4.5,10.5,6.5,15.1
		c-22.7,10.8-59.4,26-65.8,27.3c-0.2-5.5,0.1-11.1-2.9-15c-4.3-2.4-7.7-4.7-11.5-6.2c-9.5-3.9-18.5-8.8-27.6-13.4
		c-9.9-5.1-20.3-9.4-30.5-14c-3.2,5.4-3.8,11.8-8,16.6c1,3.1,3.6,4.7,6.3,6c4.1,2,8.5,3.7,12.3,6.2c11.6,7.5,23.9,13.9,36.1,20.4
		c3.5,1.9,6.9,4,10.3,6c-0.3,0.7-0.4,1-0.5,1.1c-13.2,5.6-26.5,11.3-39.8,17c1.4,3.3,2.8,6.6,4.2,9.8
		c-15.1-17.8-64.8-16.9-117.6,3.3c-19,7.3-35.1,18.7-48.1,30.8c30.3,18.6,62.4,34.5,96.1,47.4c45.5-20.7,76.2-49.9,74-71
		c1.7,3.9,3.4,7.9,5.1,11.8c7.3-3.1,14.3-6.2,21.3-9c6.9-2.8,13.5-6.3,21.8-8.6c-6.5,25.3-12.7,49.5-19.2,74.8
		c5,4.9,12.7,5.6,19.6,9c0.6-2.5,0.8-4.4,1.4-6.2c1.4-4.1,2.7-8.2,4-12.3c3.2-9.7,6.2-19.4,9.2-29.2c2.1-7.1,4.9-14.1,7.2-21.2
		c1.4-4.3,1.1-8.3-2.2-11.9c-2.4-2.7-4.5-5.7-7-8.8c22.2-9.5,43.8-18.7,65.5-27.9c2.9,5.1,4.1,10.7,7.4,15.6
		c2.4-3.9,4.4-7.3,6.7-10.9c-0.7-2-1.5-4.3-2.3-6.6c82.5-35.1,164.6-70,245.5-104.5c17.9,2.4,44.1-2.1,71-13.6
		c29.5-12.5,52.3-30.1,61.7-45.8c4.4-2.3,10.6-5.7,19.7-9.5c31.7-13.5,54.7-30.7,51.4-38.4
		C1254.7,1005.3,1235.6,1007.2,1211.7,1015.3z"/>
	<path class="st0" d="M303.3,793.4c1.8,0.7,3.4,1,4.7,0.8c12.4-2.1,14.9,6.5,19.3,13.3c6.4,9.9,12.1,20.2,19.6,32.8
		c8.2-32,16.2-60.7,22.7-89.7c0.6-2.5,1.2-4.9,1.8-7.4v-85.9h44.7c11.4-16.8,22.2-34,33.5-50.8c2.3-3.5,4.9-6.7,7.6-10.4
		c7.1,4.2,13.1,7.7,20.9,12.3c1.1-15.4,1.9-29.3,3.2-43.3c0.3-3.7,1.2-7.7,3.2-10.7c37.7-56.8,76.1-113.1,113-170.4
		c10.3-15.9,16.7-34.5,23.3-52.4c1.8-5-0.4-13.9-4.1-17.5c-2.4-2.3-12.9-0.2-16.6,3.3c-15,14.3-30.7,28.5-42.5,45.3
		C521,415.1,486,469,449.8,522c-4.4,6.5-11.2,11.9-17.9,16.1c-10.3,6.3-21.5,11.1-33.8,17.2c5.2,3.5,8.8,6.3,12.8,8.4
		c6.8,3.7,7.3,7.7,2.9,14.1c-22.4,32.4-44.2,65.2-66.6,97.6c-4.6,6.6-10.4,12.7-16.7,17.7c-13.2,10.6-27,20.2-40.5,30.4
		c-18,13.5-35.9,27.1-55.8,42.1c15.6,2.1,28.4,3.7,41.1,5.7c7.1,1.1,13.9,0.9,16.4,11.3c0.4,1.6,1.7,3.4,3.4,5.1
		c-15.2-3.9-41.6,11.5-67.1,38.6c1.3,32.4,5.3,64.1,11.8,94.9c10.6-7.6,21-17.1,29.8-28.7C300.8,851.6,314.9,809,303.3,793.4z"/>
	<path class="st0" d="M582.7,1198.8c0.9,1.5,1.8,3.1,2.8,4.7c2.7-2.9,5.1-5.6,7.6-8.1c1.1-1.1,1-1.9,0.4-3.2
		c-3.6-8.4-4.7-8.9-13.3-6.4c-0.7,0.2-1.4,0.4-2.2,0.6c-1.9,0.3-2.1,1.2-1.2,2.8c0.6,0.9,1.1,1.9,1.7,2.8c-8.8-1.6-29,4.6-50.5,16.3
		c-26.5,14.4-41.3,38.2-41.3,38.2s28.1,0.5,54.6-13.9C563.3,1220.7,579.7,1207,582.7,1198.8z"/>
	<path class="st0" d="M493.6,1154.7c24.1-13.1,41.5-28.4,41.7-36.1c0.8,1.3,1.6,2.7,2.4,4c0.7,1.2,1.2,1.8,2.7,0.7
		c7.5-5.9,7.8-8.2,3-16.1c-1.3-2.2-2.7-2.3-4.8-1.7c-8.9,2.4-9.5,2.5-5.4,9.4c-6.9-3.7-29,2.6-52.8,15.5
		c-26.5,14.4-41.3,38.2-41.3,38.2S467.1,1169.1,493.6,1154.7z"/>
	<path class="st0" d="M797.9,213.7c-158.1,0-306.7,61.4-418.5,172.8C267.7,497.9,206.1,646,206.1,803.6
		c0,157.6,61.6,305.7,173.3,417.1c111.8,111.4,260.4,172.8,418.5,172.8c158.1,0,306.7-61.4,418.5-172.8
		c111.8-111.4,173.3-259.6,173.3-417.1c0-157.6-61.6-305.7-173.3-417.1C1104.6,275.1,956,213.7,797.9,213.7z M797.9,1379.3
		c-318.5,0-577.6-258.3-577.6-575.7c0-317.5,259.1-575.7,577.6-575.7c318.5,0,577.6,258.3,577.6,575.7
		C1375.5,1121.1,1116.4,1379.3,797.9,1379.3z"/>
</g>
<path id="SVGID_x5F_1_x5F_" class="st2" d="M127.2,800.9c0,370.4,301.2,670.6,672.8,670.6c371.6,0,672.8-300.2,672.8-670.6"/>
<text><textPath  xlink:href="#SVGID_x5F_1_x5F_" startOffset="0%">
<tspan  class="st0" style="font-family:'TwCenMT-Condensed'; font-size:157.6996px;">2018-2019</tspan></textPath>
</text>
</svg>
