<?xml version="1.0" encoding="utf-8"?>
<!-- Generator: Adobe Illustrator 23.0.3, SVG Export Plug-In . SVG Version: 6.00 Build 0)  -->
<svg version="1.1" id="Layer_1" xmlns="http://www.w3.org/2000/svg" xmlns:xlink="http://www.w3.org/1999/xlink" x="0px" y="0px"
	 viewBox="0 0 1600 1600" style="enable-background:new 0 0 1600 1600;" xml:space="preserve">
<style type="text/css">
	.st0{fill:#FFFFFF;}
	.st1{fill:#FFFFFF;stroke:#231F20;stroke-width:10;stroke-miterlimit:10;}
</style>
<g>
	<g>
		<polygon class="st0" points="537.4,1413.5 547.7,1413.5 552.5,1413.5 569.5,1413.5 571.6,1413.5 588.6,1094.6 591.6,1037.2 
			598,915.8 605.7,770.8 613.6,623 614.4,605.6 434.5,605.6 421,605.6 400.2,605.6 398,613.2 313.3,902.9 260.9,1082.4 
			258.7,1082.4 257.4,896.7 255.5,605.6 122.5,605.6 45.4,605.6 12.8,738.8 -27,901.1 -32.4,923.2 -84.1,1133.7 -128.1,1313.2 
			-144.7,1380.7 -148.2,1395.1 -152.7,1413.5 -26.9,1413.5 -15.8,1413.5 18.7,1413.5 26.4,1374.5 28.9,1362 60.7,1202.4 
			62.7,1192.4 72.3,1144 82,1095.2 91.4,1048 93.4,1038 94.5,1032.5 125.6,876.2 134.4,831.6 136.6,831.6 134.4,846.7 134,880.3 
			132.3,1026.7 137,1132.1 149.4,1413.5 169.4,1413.5 180.2,1413.5 272.6,1413.5 310.4,1302 310.4,1302 340.9,1211.9 344.8,1200.8 
			348.9,1188.6 351.7,1180.3 353.6,1174.6 377.5,1104.1 386.1,1078.8 387.9,1073.4 395.2,1052.1 396,1049.8 396.8,1047.1 
			402.3,1030.9 403.4,1027 404.3,1024.1 433.2,922.5 459.1,831.6 461.2,831.6 454,910.2 452.8,923.6 448.8,967 446,997.8 
			444.6,1012.6 443.1,1028.7 442.7,1032.9 442.1,1039.9 441.3,1048.2 435.2,1114.4 434.4,1123.2 422.9,1248.2 417.8,1303.5 
			407.7,1413.5 529.3,1413.5 		"/>
	</g>
	<g>
		<path class="st0" d="M-508.2,1161.4c0.9-6,1.8-12.2,3-19l2.2-13.9l5.4-34.5l31-196.2l46.1-292.2h-159.6l-83.5,531.1l-10.9,69
			c-2.9,17.9-4.3,34.7-4.3,50.3c0,24.1,3.4,45.5,9.7,64.5c8.7,26,23.2,47.3,43.9,63.6c24.8,19.7,57.2,32.3,96.9,38.3
			c17.4,2.6,36.1,4.1,56.4,4.1c54.3,0,99.1-7.5,134.4-22.5c35.4-15,62.7-34.1,82-57.3c19.3-23.2,33.1-47.1,41.2-71.8
			c8.2-24.7,14.5-51.2,18.8-79.8l14.9-93.9l2.1-13l2.1-13.3l14.3-90.5l0.2-1.7l6.1-38.6l3.6-22.9l1.8-11.4l2.2-13.8l2.2-13.8
			l43.7-276.4h-123.3h-36.3l-8.6,54.5l-29.3,185.8l-50,316.9v2.2c-1.3,7.3-2.6,13.8-3.8,20.1c-2.2,10.9-4.3,20.4-6.4,28.2
			c-3.2,12.1-8.2,23.6-15,34.3c-6.8,10.7-16.1,19.1-27.9,25.2c-8.2,4.2-18.1,6.9-29.3,8.2c-4.8,0.6-9.8,0.9-15.2,0.9
			c-24.3,0-41.3-6.4-50.9-19.3c-1.8-2.4-3.3-5.2-4.7-7.9c-5.4-10.2-8.5-23-9.3-38.1c-0.2-2.6-0.4-4.9-0.4-7.5
			c0-8.4,0.9-19.5,2.6-33.3C-509.6,1171.1-508.9,1166.4-508.2,1161.4z"/>
	</g>
	<g>
		<path class="st0" d="M2183.5,780.7l-14.4-175.1h-168.2l-145.5,373.1l-113.7,291.6l-29.1,74.7l-26.7,68.5h158.6l33.9-91.5
			l16.5-44.6h161.8l1.3,20l1,15.8l2,31.6l0.6,10.3l1,15.2l2.7,43.3h170.4l-12.2-148.7l-3-36.3l-4.2-49.8l-10.3-125L2183.5,780.7z
			 M2046,813.4h2.2l-0.4,47.2l-0.6,74.9l5,169.5l0.3,10.9l1,35h-32.6h-5.3h-51.8h-6.8h-16.1l5.3-16.5l3-9.3l17.8-56l1.8-5.8
			l16.4-51.5l4.1-12.9l20.1-63.3l18.9-63.6L2046,813.4z"/>
	</g>
	<g>
		<path class="st0" d="M1060.3,983.6c25.2-18.9,45.4-40.9,60.5-66.1c15.3-25.4,25.5-54,30.5-85.9c2.2-12.9,3.2-25.7,3.2-38.6
			c0-28.6-4.8-55.4-14.5-80.4c-9.5-24.6-23.3-45.4-41.5-62.3c-0.3-0.3-0.6-0.6-0.8-0.9c-4.3-4-8.7-7.6-13.2-11
			c-13.7-10.3-28.4-17.8-43.9-22.4c-3.1-1-6.2-1.8-9.4-2.5c-24.3-5.4-55.8-8.1-94.3-8.1H785.1h-3.4h-1.4l-0.2,1.3l-0.6,3.8
			l-53,335.6l-4.2,26.2l-17.7,112.2l-1,6.3l-4.4,28l-2.8,17.6l-9.3,59.5l-34.3,217.5h29.7h44.3h81.4c37.1,0,72.3-4.4,105.5-13.4h0.1
			c33.2-8.9,62.9-22.3,89.4-40.2c35.3-24.4,62-55.4,80.3-93.1c3.7-7.5,6.9-15.3,9.9-23.3c0.6-1.5,1.2-3,1.7-4.6
			c5.8-16.5,10.1-33.9,13.1-52.6c1-8.8,1.6-17.9,1.8-27.1c0.1-3.5,0.3-6.9,0.3-10.5c0-30.4-5.5-58.8-16.4-85.1
			c-0.6-1.4-1.2-3-1.8-4.4c0-0.1-0.1-0.2-0.2-0.2c-1.8-4.1-3.8-8-5.9-11.7c-4.7-8.4-10-16-16-22.8c-9.3-10.5-20.1-19.1-32.6-25.6
			c5.6-3.4,10.9-6.9,16-10.5C1055.9,986.7,1058.1,985.2,1060.3,983.6z M953.1,1167.9c0,0.1,0,0.2-0.1,0.2
			c-2.6,17.1-7.2,32.4-13.9,46.1c-3,6.2-6.6,12.1-10.4,17.6c-4.4,6.2-9.3,12-14.8,17.3c-21.1,20.4-47.7,30.5-79.8,30.5l18.9-120.6
			l15.3-97.9c27.9,0,49.3,7.7,64.3,23.1c6.6,6.8,11.7,14.7,15.4,23.5c3.7,8.8,6,18.6,6.7,29.5c0.2,2.8,0.3,5.7,0.3,8.6
			C955.2,1152.7,954.5,1160.1,953.1,1167.9z M1000.9,825.6c-0.2,2.1-0.3,4.2-0.5,6.3c-0.1,1-0.1,1.9-0.2,3
			c-2.1,12.7-5.5,24.3-10.1,34.9c-1.5,3.4-3.1,6.8-4.9,10c-5.8,10.6-13.1,20.1-21.8,28.4c-0.2,0.2-0.5,0.5-0.7,0.7
			c-20,18.6-44.7,27.9-73.9,27.9l5-31.2l1.8-11.4l6.1-38.7l8.9-56.2l8-50.6l1.4-9c18.4,0,33.5,3,45.6,8.9c5.8,2.8,11,6.2,15.4,10.4
			c6.6,6.3,11.7,14,15.1,22.8c3.5,9.2,5.3,19.8,5.3,31.8C1001.3,817.5,1001.1,821.6,1000.9,825.6z"/>
	</g>
	<g>
		<path class="st0" d="M1654.3,959.7c24.6-36.1,40.5-77,47.7-122.7c2.9-18.5,4.2-36.1,4.2-52.5c0-40-8-72.3-24.1-97
			c-12.9-19.9-29-35.5-48-47c-4.6-2.8-9.3-5.4-14.2-7.7c-25.3-11.8-51.4-19.3-78.2-22.5c-26.8-3.2-55.9-4.8-87.3-4.8h-72.5h-88.3
			v0.2l-12.7,80.7L1247,901.8l-1.4,9.3l-0.8,5l-17.2,109.1l-10.1,64.3l-24.8,157.6l-4.8,30.2l-15.7,99.8l-5.8,36.3H1326l22.1-139.8
			l22.8-144.3l14-88.7h2.2l25.4,116.3l6.6,30l1.1,5.2l7.6,34.7l40.7,186.6h128.2h40l-4.7-20.8l-31-138l-26-115.7l-20.8-92.9
			C1596.3,1024.5,1629.6,995.8,1654.3,959.7z M1426.7,953.9l-27.9-1l34.3-215.4h21.4c33.6,0,57.7,6.8,72.3,20.4
			c14.6,13.6,22,32.1,22,55.7c0,7.8-0.7,16.1-2.2,24.7c-5.8,35-18.6,63-38.6,84.1C1488,943.3,1460.9,953.9,1426.7,953.9z"/>
	</g>
</g>
<g>
	<polygon class="st1" points="2046.9,371.6 2278.8,419 2278.8,524.2 2046.9,571.8 	"/>
	<path class="st1" d="M-200.4,371.6c0,0-430.6,40.7-430.6,100.1s430.6,100.1,430.6,100.1V371.6z"/>
	<rect x="-200.4" y="371.6" class="st1" width="2247.1" height="200.3"/>
	<polygon class="st1" points="1955.2,397.6 1687.1,397.6 1761.8,173.6 1880.6,173.6 	"/>
	<polygon class="st1" points="1955.2,545.7 1687.1,545.7 1761.8,769.6 1880.6,769.6 	"/>
</g>
<g id="Layer_3">
</g>
</svg>
