<?xml version="1.0" encoding="utf-8"?>
<!-- Generator: Adobe Illustrator 23.0.3, SVG Export Plug-In . SVG Version: 6.00 Build 0)  -->
<svg version="1.1" id="Layer_1" xmlns="http://www.w3.org/2000/svg" xmlns:xlink="http://www.w3.org/1999/xlink" x="0px" y="0px"
	 viewBox="0 0 1600 1600" style="enable-background:new 0 0 1600 1600;" xml:space="preserve">
<style type="text/css">
	.st0{fill:#FFFFFF;}
	.st1{fill:#FFFFFF;stroke:#231F20;stroke-miterlimit:10;}
</style>
<g>
	<g>
		<polygon class="st0" points="1005.5,1089.9 1008.7,1089.9 1010.3,1089.9 1015.7,1089.9 1016.4,1089.9 1021.8,988.3 1022.7,970 
			1024.8,931.3 1027.2,885 1029.7,837.9 1030,832.4 972.7,832.4 968.3,832.4 961.7,832.4 961,834.8 934,927.2 917.3,984.4 
			916.6,984.4 916.2,925.2 915.6,832.4 873.2,832.4 848.6,832.4 838.2,874.9 825.6,926.6 823.8,933.6 807.4,1000.7 793.3,1057.9 
			788.1,1079.5 786.9,1084 785.5,1089.9 825.6,1089.9 829.1,1089.9 840.1,1089.9 842.6,1077.5 843.4,1073.5 853.5,1022.6 
			854.1,1019.4 857.2,1004 860.3,988.5 863.3,973.4 863.9,970.2 864.3,968.5 874.2,918.7 877,904.4 877.7,904.4 877,909.2 
			876.9,920 876.3,966.6 877.8,1000.2 881.8,1089.9 888.2,1089.9 891.6,1089.9 921.1,1089.9 933.1,1054.4 933.1,1054.4 
			942.8,1025.7 944,1022.1 945.4,1018.2 946.3,1015.6 946.9,1013.8 954.5,991.3 957.2,983.2 957.8,981.5 960.1,974.7 960.4,974 
			960.6,973.1 962.4,968 962.7,966.7 963,965.8 972.2,933.4 980.5,904.4 981.2,904.4 978.9,929.5 978.5,933.8 977.2,947.6 
			976.3,957.4 975.9,962.1 975.4,967.3 975.3,968.6 975.1,970.8 974.8,973.5 972.9,994.6 972.6,997.4 968.9,1037.2 967.3,1054.8 
			964.1,1089.9 1002.9,1089.9 		"/>
	</g>
	<g>
		<path class="st0" d="M672.2,1009.5c0.3-1.9,0.6-3.9,0.9-6.1l0.7-4.4l1.7-11l9.9-62.5l14.7-93.1h-50.9l-26.6,169.3l-3.5,22
			c-0.9,5.7-1.4,11-1.4,16c0,7.7,1.1,14.5,3.1,20.5c2.8,8.3,7.4,15.1,14,20.3c7.9,6.3,18.2,10.3,30.9,12.2c5.6,0.8,11.5,1.3,18,1.3
			c17.3,0,31.6-2.4,42.8-7.2c11.3-4.8,20-10.9,26.1-18.3c6.1-7.4,10.5-15,13.1-22.9c2.6-7.9,4.6-16.3,6-25.4l4.7-29.9l0.7-4.2
			l0.7-4.3l4.6-28.8l0.1-0.5l1.9-12.3l1.1-7.3l0.6-3.6l0.7-4.4l0.7-4.4l13.9-88.1h-39.3h-11.6l-2.7,17.4l-9.3,59.2l-15.9,101v0.7
			c-0.4,2.3-0.8,4.4-1.2,6.4c-0.7,3.5-1.4,6.5-2,9c-1,3.9-2.6,7.5-4.8,10.9c-2.2,3.4-5.1,6.1-8.9,8c-2.6,1.3-5.8,2.2-9.3,2.6
			c-1.5,0.2-3.1,0.3-4.8,0.3c-7.7,0-13.2-2-16.2-6.1c-0.6-0.8-1-1.7-1.5-2.5c-1.7-3.3-2.7-7.3-3-12.1c-0.1-0.8-0.1-1.6-0.1-2.4
			c0-2.7,0.3-6.2,0.8-10.6C671.8,1012.7,672,1011.2,672.2,1009.5z"/>
	</g>
	<g>
		<path class="st0" d="M1530.1,888.2l-4.6-55.8h-53.6l-46.4,118.9l-36.2,93l-9.3,23.8l-8.5,21.8h50.5l10.8-29.2l5.2-14.2h51.6
			l0.4,6.4l0.3,5l0.6,10.1l0.2,3.3l0.3,4.8l0.9,13.8h54.3l-3.9-47.4l-0.9-11.6l-1.3-15.9l-3.3-39.8L1530.1,888.2z M1486.3,898.6h0.7
			l-0.1,15l-0.2,23.9l1.6,54l0.1,3.5l0.3,11.2h-10.4h-1.7h-16.5h-2.2h-5.1l1.7-5.2l1-3l5.7-17.8l0.6-1.9l5.2-16.4l1.3-4.1l6.4-20.2
			l6-20.3L1486.3,898.6z"/>
	</g>
	<g>
		<path class="st0" d="M1172.1,952.9c8-6,14.5-13,19.3-21.1c4.9-8.1,8.1-17.2,9.7-27.4c0.7-4.1,1-8.2,1-12.3
			c0-9.1-1.5-17.6-4.6-25.6c-3-7.8-7.4-14.5-13.2-19.9c-0.1-0.1-0.2-0.2-0.3-0.3c-1.4-1.3-2.8-2.4-4.2-3.5c-4.4-3.3-9-5.7-14-7.2
			c-1-0.3-2-0.6-3-0.8c-7.7-1.7-17.8-2.6-30.1-2.6h-48.3h-1.1h-0.4l-0.1,0.4l-0.2,1.2l-16.9,107l-1.3,8.4l-5.7,35.8l-0.3,2l-1.4,8.9
			l-0.9,5.6l-3,19l-10.9,69.3h9.5h14.1h25.9c11.8,0,23-1.4,33.6-4.3h0c10.6-2.9,20.1-7.1,28.5-12.8c11.3-7.8,19.8-17.7,25.6-29.7
			c1.2-2.4,2.2-4.9,3.2-7.4c0.2-0.5,0.4-1,0.5-1.5c1.8-5.2,3.2-10.8,4.2-16.8c0.3-2.8,0.5-5.7,0.6-8.6c0-1.1,0.1-2.2,0.1-3.3
			c0-9.7-1.8-18.7-5.2-27.1c-0.2-0.5-0.4-0.9-0.6-1.4c0,0,0-0.1-0.1-0.1c-0.6-1.3-1.2-2.5-1.9-3.7c-1.5-2.7-3.2-5.1-5.1-7.3
			c-3-3.3-6.4-6.1-10.4-8.2c1.8-1.1,3.5-2.2,5.1-3.4C1170.7,953.9,1171.4,953.4,1172.1,952.9z M1137.9,1011.6
			C1137.9,1011.6,1137.9,1011.7,1137.9,1011.6c-0.8,5.5-2.3,10.4-4.5,14.8c-1,2-2.1,3.8-3.3,5.6c-1.4,2-3,3.8-4.7,5.5
			c-6.7,6.5-15.2,9.7-25.4,9.7l6-38.4l4.9-31.2c8.9,0,15.7,2.4,20.5,7.4c2.1,2.2,3.7,4.7,4.9,7.5c1.2,2.8,1.9,5.9,2.1,9.4
			c0.1,0.9,0.1,1.8,0.1,2.7C1138.6,1006.8,1138.4,1009.1,1137.9,1011.6z M1153.2,902.5c-0.1,0.7-0.1,1.3-0.2,2c0,0.3,0,0.6-0.1,0.9
			c-0.7,4-1.8,7.7-3.2,11.1c-0.5,1.1-1,2.2-1.6,3.2c-1.9,3.4-4.2,6.4-7,9c-0.1,0.1-0.2,0.2-0.2,0.2c-6.4,5.9-14.2,8.9-23.6,8.9
			l1.6-10l0.6-3.6l1.9-12.3l2.8-17.9l2.5-16.1l0.5-2.9c5.9,0,10.7,1,14.5,2.8c1.9,0.9,3.5,2,4.9,3.3c2.1,2,3.7,4.5,4.8,7.3
			c1.1,2.9,1.7,6.3,1.7,10.1C1153.3,899.9,1153.3,901.2,1153.2,902.5z"/>
	</g>
	<g>
		<path class="st0" d="M1361.4,945.3c7.8-11.5,12.9-24.5,15.2-39.1c0.9-5.9,1.3-11.5,1.3-16.7c0-12.8-2.5-23-7.7-30.9
			c-4.1-6.3-9.2-11.3-15.3-15c-1.5-0.9-3-1.7-4.5-2.4c-8.1-3.8-16.4-6.2-24.9-7.2c-8.6-1-17.8-1.5-27.8-1.5h-23.1h-28.1v0.1l-4,25.7
			l-10.8,68.6l-0.5,3l-0.3,1.6l-5.5,34.8l-3.2,20.5l-7.9,50.2l-1.5,9.6l-5,31.8l-1.8,11.6h50.9l7.1-44.6l7.3-46l4.5-28.3h0.7
			l8.1,37.1l2.1,9.6l0.4,1.7l2.4,11.1l13,59.5h40.9h12.8l-1.5-6.6l-9.9-44l-8.3-36.9l-6.6-29.6
			C1342.9,965.9,1353.6,956.8,1361.4,945.3z M1288.9,943.4l-8.9-0.3l10.9-68.6h6.8c10.7,0,18.4,2.2,23,6.5c4.7,4.3,7,10.2,7,17.7
			c0,2.5-0.2,5.1-0.7,7.9c-1.8,11.2-5.9,20.1-12.3,26.8C1308.4,940,1299.8,943.4,1288.9,943.4z"/>
	</g>
</g>
<g>
	<polygon class="st1" points="1486.6,757.8 1560.5,772.9 1560.5,806.5 1486.6,821.6 	"/>
	<path class="st1" d="M770.3,757.8c0,0-137.2,13-137.2,31.9c0,18.9,137.2,31.9,137.2,31.9V757.8z"/>
	<rect x="770.3" y="757.8" class="st1" width="716.2" height="63.8"/>
	<polygon class="st1" points="1457.3,766.1 1371.9,766.1 1395.7,694.7 1433.6,694.7 	"/>
	<polygon class="st1" points="1457.3,813.3 1371.9,813.3 1395.7,884.7 1433.6,884.7 	"/>
</g>
<g id="Layer_3">
</g>
</svg>
