<?xml version="1.0" encoding="utf-8"?>
<!-- Generator: Adobe Illustrator 23.0.3, SVG Export Plug-In . SVG Version: 6.00 Build 0)  -->
<svg version="1.1" id="Layer_1" xmlns="http://www.w3.org/2000/svg" xmlns:xlink="http://www.w3.org/1999/xlink" x="0px" y="0px"
	 viewBox="0 0 1600 1600" style="enable-background:new 0 0 1600 1600;" xml:space="preserve">
<style type="text/css">
	.st0{fill:#FFFFFF;stroke:#231F20;stroke-width:5;stroke-miterlimit:10;}
</style>
<g>
	<g>
		<polygon class="st0" points="658,1131.9 663.5,1131.9 666.1,1131.9 675.3,1131.9 676.5,1131.9 685.6,959.4 687.3,928.3 
			690.7,862.7 694.9,784.2 699.1,704.2 699.6,694.8 602.3,694.8 595,694.8 583.7,694.8 582.5,698.9 536.7,855.7 508.4,952.8 
			507.2,952.8 506.5,852.3 505.5,694.8 433.5,694.8 391.8,694.8 374.1,766.9 352.6,854.7 349.7,866.6 321.7,980.5 297.9,1077.6 
			289,1114.2 287.1,1121.9 284.6,1131.9 352.7,1131.9 358.7,1131.9 377.3,1131.9 381.5,1110.8 382.9,1104 400.1,1017.7 
			401.1,1012.3 406.3,986.1 411.6,959.7 416.7,934.1 417.7,928.8 418.3,925.7 435.2,841.2 440,817.1 441.1,817.1 440,825.2 
			439.7,843.4 438.8,922.6 441.3,979.7 448.1,1131.9 458.9,1131.9 464.7,1131.9 514.7,1131.9 535.1,1071.5 535.1,1071.5 
			551.7,1022.8 553.7,1016.8 556,1010.2 557.5,1005.7 558.5,1002.7 571.4,964.5 576.1,950.8 577.1,947.9 581,936.4 581.4,935.1 
			581.9,933.7 584.9,924.9 585.4,922.8 585.9,921.2 601.6,866.3 615.6,817.1 616.7,817.1 612.8,859.6 612.2,866.9 610,890.4 
			608.5,907 607.7,915 606.9,923.7 606.7,926 606.4,929.8 606,934.3 602.6,970.1 602.2,974.8 596,1042.5 593.2,1072.4 587.8,1131.9 
			653.6,1131.9 		"/>
	</g>
	<g>
		<path class="st0" d="M92.3,995.5c0.5-3.2,1-6.6,1.6-10.3l1.2-7.5L98,959l16.8-106.1l24.9-158.1H53.4L8.2,982.1l-5.9,37.3
			c-1.6,9.7-2.3,18.8-2.3,27.2c0,13.1,1.8,24.6,5.3,34.9c4.7,14,12.5,25.6,23.7,34.4c13.4,10.6,30.9,17.5,52.4,20.7
			c9.4,1.4,19.5,2.2,30.5,2.2c29.4,0,53.6-4.1,72.7-12.2c19.1-8.1,33.9-18.5,44.3-31c10.4-12.6,17.9-25.5,22.3-38.8
			c4.5-13.4,7.8-27.7,10.2-43.2l8-50.8l1.1-7l1.1-7.2l7.7-49l0.1-0.9l3.3-20.9l1.9-12.4l1-6.2l1.2-7.5l1.2-7.5l23.6-149.5h-66.7
			h-19.7l-4.7,29.5l-15.9,100.5l-27.1,171.4v1.2c-0.7,3.9-1.4,7.5-2.1,10.8c-1.2,5.9-2.3,11.1-3.5,15.3c-1.7,6.6-4.5,12.7-8.1,18.5
			c-3.7,5.8-8.7,10.3-15.1,13.6c-4.5,2.3-9.8,3.8-15.9,4.5c-2.6,0.3-5.3,0.5-8.2,0.5c-13.1,0-22.3-3.5-27.5-10.4
			c-1-1.3-1.8-2.8-2.5-4.3c-2.9-5.5-4.6-12.4-5-20.6c-0.1-1.4-0.2-2.6-0.2-4.1c0-4.5,0.5-10.5,1.4-18
			C91.6,1000.8,91.9,998.2,92.3,995.5z"/>
	</g>
	<g>
		<path class="st0" d="M1548.4,789.5l-7.8-94.7h-91L1371,896.7l-61.5,157.8l-15.7,40.4l-14.4,37h85.8l18.3-49.5l8.9-24.1h87.5
			l0.7,10.8l0.5,8.6l1.1,17.1l0.3,5.6l0.5,8.2l1.5,23.4h92.2l-6.6-80.4l-1.6-19.6l-2.2-27l-5.6-67.6L1548.4,789.5z M1474,807.3h1.2
			l-0.2,25.5l-0.3,40.5l2.7,91.7l0.2,5.9l0.6,18.9h-17.6h-2.9h-28h-3.7h-8.7l2.9-8.9l1.6-5.1l9.6-30.3l1-3.2l8.9-27.9l2.2-7
			l10.9-34.2l10.2-34.4L1474,807.3z"/>
	</g>
	<g>
		<path class="st0" d="M940.8,899.3c13.6-10.2,24.5-22.1,32.7-35.7c8.3-13.7,13.8-29.2,16.5-46.5c1.2-7,1.7-13.9,1.7-20.9
			c0-15.5-2.6-29.9-7.8-43.5c-5.1-13.3-12.6-24.5-22.4-33.7c-0.2-0.2-0.3-0.3-0.4-0.5c-2.3-2.2-4.7-4.1-7.1-6
			c-7.4-5.6-15.3-9.6-23.8-12.1c-1.7-0.5-3.4-1-5.1-1.3c-13.1-2.9-30.2-4.4-51-4.4H792h-1.8h-0.7l-0.1,0.7l-0.3,2.1l-28.7,181.5
			l-2.2,14.2l-9.6,60.7l-0.5,3.4l-2.4,15.1l-1.5,9.5l-5.1,32.2l-18.6,117.7h16.1h23.9h44c20.1,0,39.1-2.4,57.1-7.3h0
			c17.9-4.8,34.1-12.1,48.4-21.7c19.1-13.2,33.5-30,43.4-50.3c2-4.1,3.8-8.3,5.4-12.6c0.3-0.8,0.6-1.6,0.9-2.5
			c3.1-8.9,5.5-18.4,7.1-28.4c0.6-4.8,0.9-9.7,1-14.6c0-1.9,0.2-3.8,0.2-5.7c0-16.5-3-31.8-8.9-46c-0.3-0.8-0.6-1.6-1-2.4
			c0,0,0-0.1-0.1-0.1c-1-2.2-2.1-4.3-3.2-6.4c-2.5-4.5-5.4-8.6-8.6-12.4c-5-5.7-10.9-10.3-17.6-13.9c3-1.8,5.9-3.8,8.6-5.7
			C938.4,901,939.6,900.2,940.8,899.3z M882.8,999c0,0,0,0.1,0,0.1c-1.4,9.2-3.9,17.5-7.5,24.9c-1.6,3.4-3.5,6.5-5.6,9.5
			c-2.4,3.4-5.1,6.5-8,9.3c-11.4,11-25.8,16.5-43.2,16.5l10.2-65.3l8.3-53c15.1,0,26.7,4.1,34.8,12.5c3.6,3.7,6.4,8,8.3,12.7
			c2,4.8,3.2,10.1,3.6,15.9c0.1,1.5,0.2,3.1,0.2,4.7C884,990.8,883.6,994.8,882.8,999z M908.7,813.9c-0.1,1.1-0.2,2.3-0.3,3.4
			c0,0.5,0,1-0.1,1.6c-1.1,6.9-3,13.1-5.5,18.9c-0.8,1.9-1.7,3.7-2.6,5.4c-3.2,5.7-7.1,10.9-11.8,15.3c-0.1,0.1-0.3,0.3-0.4,0.4
			C877.2,869,863.8,874,848,874l2.7-16.9l1-6.2l3.3-20.9l4.8-30.4l4.3-27.4l0.8-4.9c9.9,0,18.1,1.6,24.7,4.8c3.2,1.5,6,3.4,8.3,5.6
			c3.6,3.4,6.3,7.6,8.2,12.4c1.9,5,2.9,10.7,2.9,17.2C908.9,809.5,908.8,811.7,908.7,813.9z"/>
	</g>
	<g>
		<path class="st0" d="M1262.2,886.4c13.3-19.5,21.9-41.7,25.8-66.4c1.6-10,2.3-19.5,2.3-28.4c0-21.6-4.3-39.1-13.1-52.5
			c-7-10.8-15.7-19.2-26-25.4c-2.5-1.5-5-2.9-7.7-4.1c-13.7-6.4-27.8-10.5-42.3-12.2c-14.5-1.7-30.2-2.6-47.2-2.6h-39.2h-47.8v0.1
			l-6.9,43.6l-18.4,116.5l-0.8,5l-0.4,2.7l-9.3,59l-5.5,34.8l-13.4,85.3l-2.6,16.3l-8.5,54l-3.1,19.7h86.4l12-75.6l12.4-78.1l7.6-48
			h1.2l13.7,62.9l3.5,16.2l0.6,2.8l4.1,18.8l22,100.9h69.4h21.6l-2.5-11.3l-16.8-74.7l-14-62.6l-11.3-50.3
			C1230.7,921.5,1248.8,905.9,1262.2,886.4z M1139,883.2l-15.1-0.6l18.5-116.5h11.6c18.1,0,31.2,3.7,39.1,11
			c7.9,7.3,11.9,17.4,11.9,30.1c0,4.2-0.4,8.7-1.2,13.4c-3.1,18.9-10.1,34.1-20.9,45.5C1172.2,877.5,1157.5,883.2,1139,883.2z"/>
	</g>
</g>
<g>
	<polygon class="st0" points="1474.5,568.2 1600,593.9 1600,650.8 1474.5,676.5 	"/>
	<path class="st0" d="M258.8,568.2c0,0-232.9,22-232.9,54.1c0,32.1,232.9,54.1,232.9,54.1V568.2z"/>
	<rect x="258.8" y="568.2" class="st0" width="1215.6" height="108.3"/>
	<polygon class="st0" points="1424.9,582.3 1279.9,582.3 1320.3,461.2 1384.5,461.2 	"/>
	<polygon class="st0" points="1424.9,662.4 1279.9,662.4 1320.3,783.6 1384.5,783.6 	"/>
</g>
<g id="Layer_3">
</g>
</svg>
