<?xml version="1.0" encoding="utf-8"?>
<!-- Generator: Adobe Illustrator 23.0.3, SVG Export Plug-In . SVG Version: 6.00 Build 0)  -->
<svg version="1.1" xmlns="http://www.w3.org/2000/svg" xmlns:xlink="http://www.w3.org/1999/xlink" x="0px" y="0px"
	 viewBox="0 0 1600 1600" style="enable-background:new 0 0 1600 1600;" xml:space="preserve">
<style type="text/css">
	.st0{fill:#FFFFFF;}
	.st1{fill:#FFFFFF;stroke:#231F20;stroke-miterlimit:10;}
</style>
<g id="Layer_1">
	<g>
		<polygon class="st0" points="770.06,849.94 771.34,849.94 771.95,849.94 774.08,849.94 774.34,849.94 776.46,810.02 
			776.84,802.84 777.64,787.64 778.61,769.48 779.59,750.98 779.7,748.8 757.18,748.8 755.48,748.8 752.88,748.8 752.6,749.75 
			742,786.02 735.44,808.49 735.17,808.49 735.01,785.25 734.77,748.8 718.12,748.8 708.47,748.8 704.38,765.48 699.4,785.8 
			698.72,788.56 692.25,814.92 686.74,837.39 684.67,845.84 684.23,847.64 683.66,849.94 699.42,849.94 700.81,849.94 
			705.12,849.94 706.09,845.06 706.4,843.5 710.38,823.52 710.63,822.26 711.83,816.2 713.05,810.1 714.22,804.18 714.47,802.94 
			714.61,802.24 718.5,782.68 719.61,777.1 719.88,777.1 719.61,778.98 719.56,783.19 719.34,801.52 719.93,814.72 721.49,849.94 
			723.99,849.94 725.34,849.94 736.91,849.94 741.64,835.98 741.64,835.98 745.46,824.71 745.94,823.32 746.46,821.79 
			746.81,820.75 747.05,820.04 750.04,811.21 751.11,808.04 751.34,807.36 752.25,804.7 752.35,804.41 752.46,804.07 753.15,802.05 
			753.28,801.56 753.39,801.19 757.01,788.48 760.25,777.1 760.52,777.1 759.62,786.94 759.46,788.61 758.96,794.05 758.61,797.9 
			758.44,799.75 758.25,801.77 758.2,802.3 758.12,803.17 758.03,804.21 757.26,812.5 757.16,813.6 755.72,829.25 755.08,836.17 
			753.82,849.94 769.04,849.94 		"/>
	</g>
	<g>
		<path class="st0" d="M639.16,818.38c0.11-0.75,0.23-1.53,0.37-2.38l0.27-1.74l0.68-4.32l3.88-24.56l5.77-36.58h-19.98
			l-10.45,66.48l-1.36,8.64c-0.36,2.24-0.54,4.34-0.54,6.3c0,3.02,0.42,5.7,1.22,8.07c1.09,3.25,2.9,5.92,5.49,7.96
			c3.11,2.46,7.16,4.04,12.13,4.79c2.18,0.33,4.52,0.51,7.06,0.51c6.8,0,12.41-0.94,16.83-2.82c4.43-1.88,7.85-4.27,10.26-7.17
			c2.41-2.91,4.14-5.9,5.16-8.99c1.03-3.09,1.81-6.41,2.35-9.99l1.86-11.76l0.26-1.63l0.26-1.67l1.79-11.33l0.03-0.21l0.76-4.83
			l0.45-2.87l0.23-1.43l0.27-1.73l0.27-1.73l5.47-34.6h-15.44h-4.55l-1.08,6.82l-3.67,23.26l-6.26,39.67v0.27
			c-0.16,0.91-0.32,1.73-0.48,2.51c-0.28,1.37-0.54,2.56-0.8,3.53c-0.4,1.52-1.03,2.95-1.88,4.29c-0.85,1.34-2.01,2.39-3.49,3.15
			c-1.03,0.53-2.26,0.87-3.67,1.03c-0.6,0.07-1.23,0.11-1.9,0.11c-3.04,0-5.17-0.8-6.37-2.41c-0.23-0.3-0.41-0.65-0.59-0.99
			c-0.68-1.28-1.06-2.88-1.16-4.77c-0.02-0.32-0.05-0.61-0.05-0.94c0-1.05,0.11-2.44,0.32-4.17
			C638.99,819.6,639.07,819.01,639.16,818.38z"/>
	</g>
	<g>
		<path class="st0" d="M976.13,770.72l-1.8-21.92h-21.06l-18.21,46.71l-14.23,36.51l-3.64,9.35l-3.34,8.57h19.85l4.24-11.46
			l2.06-5.58h20.25l0.16,2.5l0.12,1.98l0.25,3.95l0.08,1.29l0.12,1.9l0.34,5.42h21.33l-1.53-18.61l-0.37-4.54l-0.52-6.24
			l-1.29-15.65L976.13,770.72z M958.91,774.82h0.27l-0.05,5.91l-0.08,9.38l0.63,21.22l0.04,1.37l0.13,4.38h-4.08h-0.66h-6.48h-0.85
			h-2.02l0.66-2.06l0.38-1.17l2.23-7.01l0.23-0.73l2.05-6.45l0.51-1.62l2.52-7.92l2.37-7.96L958.91,774.82z"/>
	</g>
	<g>
		<path class="st0" d="M835.51,796.12c3.15-2.37,5.68-5.12,7.57-8.27c1.92-3.18,3.19-6.76,3.82-10.75c0.27-1.61,0.4-3.22,0.4-4.83
			c0-3.58-0.6-6.93-1.81-10.06c-1.19-3.08-2.92-5.68-5.19-7.8c-0.04-0.04-0.07-0.08-0.1-0.11c-0.54-0.5-1.09-0.95-1.65-1.38
			c-1.72-1.29-3.55-2.23-5.5-2.81c-0.39-0.12-0.78-0.22-1.18-0.31c-3.04-0.67-6.98-1.01-11.81-1.01h-18.99h-0.42h-0.17l-0.02,0.16
			l-0.08,0.48l-6.63,42.01l-0.52,3.28l-2.22,14.05l-0.12,0.79l-0.55,3.5l-0.35,2.2l-1.17,7.45l-4.3,27.23h3.72h5.54h10.19
			c4.65,0,9.05-0.55,13.21-1.68c0,0,0.01,0,0.01,0c4.15-1.12,7.88-2.79,11.19-5.03c4.42-3.05,7.76-6.94,10.05-11.65
			c0.46-0.94,0.87-1.91,1.24-2.92c0.07-0.19,0.15-0.38,0.21-0.58c0.72-2.06,1.27-4.25,1.64-6.58c0.13-1.1,0.2-2.24,0.23-3.39
			c0.01-0.44,0.04-0.87,0.04-1.31c0-3.81-0.69-7.36-2.05-10.65c-0.08-0.18-0.15-0.37-0.23-0.55c0-0.01-0.01-0.02-0.02-0.03
			c-0.23-0.51-0.48-1-0.74-1.47c-0.59-1.05-1.25-2-2-2.86c-1.16-1.31-2.52-2.39-4.08-3.21c0.7-0.42,1.36-0.87,2-1.32
			C834.96,796.51,835.24,796.32,835.51,796.12z M822.09,819.19c0,0.01,0,0.02-0.01,0.03c-0.32,2.14-0.9,4.06-1.74,5.77
			c-0.38,0.78-0.82,1.51-1.3,2.2c-0.55,0.78-1.17,1.5-1.85,2.16c-2.64,2.55-5.97,3.82-9.99,3.82l2.37-15.1l1.92-12.26
			c3.49,0,6.17,0.96,8.05,2.89c0.83,0.85,1.47,1.84,1.93,2.94c0.46,1.1,0.75,2.33,0.84,3.69c0.02,0.35,0.04,0.71,0.04,1.08
			C822.36,817.29,822.27,818.22,822.09,819.19z M828.08,776.35c-0.02,0.26-0.04,0.53-0.06,0.79c-0.01,0.12-0.01,0.24-0.03,0.37
			c-0.26,1.59-0.69,3.04-1.27,4.37c-0.19,0.43-0.39,0.85-0.61,1.25c-0.73,1.33-1.64,2.52-2.73,3.55c-0.03,0.03-0.06,0.06-0.09,0.09
			c-2.5,2.33-5.59,3.49-9.25,3.49l0.62-3.91l0.22-1.43l0.76-4.84l1.11-7.04l1-6.34l0.18-1.13c2.3,0,4.19,0.38,5.71,1.11
			c0.73,0.35,1.38,0.78,1.93,1.3c0.83,0.79,1.46,1.75,1.89,2.86c0.44,1.15,0.66,2.48,0.66,3.98
			C828.13,775.33,828.11,775.84,828.08,776.35z"/>
	</g>
	<g>
		<path class="st0" d="M909.88,793.13c3.08-4.52,5.07-9.64,5.97-15.36c0.36-2.32,0.53-4.52,0.53-6.57c0-5.01-1-9.05-3.02-12.14
			c-1.62-2.49-3.63-4.44-6.01-5.88c-0.57-0.35-1.16-0.67-1.78-0.96c-3.17-1.48-6.44-2.42-9.79-2.82c-3.36-0.4-7-0.6-10.93-0.6h-9.07
			h-11.05l0,0.03l-1.59,10.1l-4.25,26.95l-0.18,1.16l-0.1,0.63l-2.15,13.66l-1.27,8.05l-3.11,19.73l-0.6,3.78l-1.97,12.49
			l-0.72,4.55h19.99l2.77-17.5l2.86-18.07l1.75-11.1h0.27l3.18,14.56l0.82,3.76l0.14,0.65l0.95,4.35l5.1,23.36h16.05h5.01
			l-0.59-2.61l-3.88-17.28l-3.25-14.48l-2.61-11.63C902.61,801.25,906.79,797.65,909.88,793.13z M881.38,792.4l-3.49-0.13
			l4.29-26.96h2.68c4.2,0,7.22,0.85,9.05,2.55c1.83,1.7,2.75,4.02,2.75,6.97c0,0.98-0.09,2.01-0.27,3.09
			c-0.72,4.38-2.33,7.89-4.83,10.53C889.06,791.08,885.67,792.4,881.38,792.4z"/>
	</g>
</g>
<g id="Layer_2">
	<polygon class="st1" points="959.02,719.51 988.06,725.45 988.06,738.62 959.02,744.57 	"/>
	<path class="st1" d="M677.7,719.51c0,0-53.9,5.1-53.9,12.53s53.9,12.53,53.9,12.53V719.51z"/>
	<rect x="677.7" y="719.51" class="st1" width="281.31" height="25.07"/>
	<polygon class="st1" points="947.54,722.77 913.98,722.77 923.33,694.73 938.2,694.73 	"/>
	<polygon class="st1" points="947.54,741.3 913.98,741.3 923.33,769.34 938.2,769.34 	"/>
</g>
<g id="Layer_3">
</g>
</svg>
